<svg width="165" height="200" viewBox="0 0 165 200" fill="none" xmlns="http://www.w3.org/2000/svg">
<path d="M84.7588 96.4714C84.7588 96.4714 106.274 118.144 108.078 152.124C109.883 186.104 92.1546 199.574 83.0195 197.622C73.8847 195.67 73.4332 187.975 78.2056 175.032C82.9775 162.09 89.1672 146.887 89.2246 128.931C89.2692 115.022 85.3077 105.131 80.5961 98.6306C75.8838 92.1301 79.9979 90.7858 84.7588 96.4714Z" fill="#009ED5"/>
<path d="M84.7588 96.4714C84.7588 96.4714 106.274 118.144 108.078 152.124C109.883 186.104 92.1546 199.574 83.0195 197.622C73.8847 195.67 73.4332 187.975 78.2056 175.032C82.9775 162.09 89.1672 146.887 89.2246 128.931C89.2692 115.022 85.3077 105.131 80.5961 98.6306C75.8838 92.1301 79.9979 90.7858 84.7588 96.4714Z" stroke="#033E75" stroke-width="2" stroke-linecap="round" stroke-linejoin="round"/>
<path d="M98.0706 119.967C101.229 126.941 110.709 154.398 103.318 176.318C96.9101 195.323 87.3162 196.975 83.1791 195.315C78.3833 193.391 76.8929 188.633 84.9573 175.769C93.0218 162.905 98.3374 145.543 94.8672 125.697C93.1076 115.635 96.7782 117.113 98.0706 119.967Z" fill="#00C4F1"/>
<path d="M102.508 157.729C97.4831 156.934 90.5446 176.984 96.81 177.005C103.075 177.027 107.533 158.524 102.508 157.729Z" fill="#007DD2"/>
<path d="M95.1338 178.911C92.6648 178.112 87.7206 184.739 91.6479 186.091C95.5752 187.444 99.1732 180.218 95.1338 178.911Z" fill="#007DD2"/>
<g opacity="0.2">
<path opacity="0.2" d="M95.6719 173.018C90.6461 171.323 81.4748 186.645 87.8876 188.427C94.3001 190.207 101.467 174.973 95.6719 173.018Z" fill="white"/>
</g>
<g opacity="0.2">
<path opacity="0.2" d="M98.5047 163.34C95.6239 162.328 92.7842 169.095 95.9823 169.385C99.1811 169.675 100.841 164.159 98.5047 163.34Z" fill="white"/>
</g>
<path d="M71.161 100.166C72.1391 106.148 73.4901 116.599 66.0475 129.674C60.4845 139.445 55.2795 144.808 59.3487 148.35C63.418 151.892 69.8582 147.546 75.7294 133.507C81.6005 119.468 78.8208 104.367 76.076 98.1785C73.3069 91.9375 69.9664 92.8625 71.161 100.166Z" fill="#009ED5"/>
<path d="M71.161 100.166C72.1391 106.148 73.4901 116.599 66.0475 129.674C60.4845 139.445 55.2795 144.808 59.3487 148.35C63.418 151.892 69.8582 147.546 75.7294 133.507C81.6005 119.468 78.8208 104.367 76.076 98.1785C73.3069 91.9375 69.9664 92.8625 71.161 100.166Z" stroke="#033E75" stroke-width="2" stroke-linecap="round" stroke-linejoin="round"/>
<path d="M73.1816 114.677C71.336 122.76 68.6544 129.704 64.4656 136.187C61.6137 140.6 58.297 145.814 62.1063 147.025C65.558 148.122 70.952 139.881 73.7634 130.643C76.5744 121.406 74.7048 108.006 73.1816 114.677Z" fill="#00C4F1"/>
<g opacity="0.2">
<path opacity="0.2" d="M63.0881 140.174C60.953 140.494 59.7956 144.687 61.6139 144.641C63.4322 144.595 64.756 139.923 63.0881 140.174Z" fill="white"/>
</g>
<g opacity="0.2">
<path opacity="0.2" d="M65.5273 136.059C64.4955 135.818 63.282 138.452 64.3313 138.611C65.3811 138.769 66.379 136.258 65.5273 136.059Z" fill="white"/>
</g>
<path d="M79.3087 95.5005C79.3087 95.5005 94.3324 114.441 95.4039 138.488C96.4762 162.534 86.7069 179.395 75.4647 177.38C64.2223 175.366 70.4894 157.579 76.3441 134.988C82.1991 112.397 76.4553 102.5 74.392 97.6366C72.3286 92.773 75.523 91.1994 79.3087 95.5005Z" fill="#009ED5"/>
<path d="M79.3087 95.5005C79.3087 95.5005 94.3324 114.441 95.4039 138.488C96.4762 162.534 86.7069 179.395 75.4647 177.38C64.2223 175.366 70.4894 157.579 76.3441 134.988C82.1991 112.397 76.4553 102.5 74.392 97.6366C72.3286 92.773 75.523 91.1994 79.3087 95.5005Z" stroke="#033E75" stroke-width="2" stroke-linecap="round" stroke-linejoin="round"/>
<path d="M81.1546 115.655C79.7919 131.683 75.1091 149.174 71.8474 159.566C69.5988 166.73 71.0197 174.854 78.1758 174.887C84.7006 174.916 92.8998 162.872 92.7591 147.073C92.6189 131.272 81.9888 105.843 81.1546 115.655Z" fill="#00C4F1"/>
<g opacity="0.2">
<path opacity="0.2" d="M77.4955 151.249C74.0202 151.388 70.2238 167.213 75.1094 166.808C79.9948 166.403 82.9884 151.029 77.4955 151.249Z" fill="white"/>
</g>
<g opacity="0.2">
<path opacity="0.2" d="M79.1344 142.647C77.0603 142.783 75.9583 148.238 78.6331 148.235C81.308 148.232 81.2086 142.512 79.1344 142.647Z" fill="white"/>
</g>
<path d="M74.5819 156.969C72.6326 157.014 72.4256 162.721 74.2433 162.05C76.0606 161.38 76.5311 156.923 74.5819 156.969Z" fill="white"/>
<path d="M74.7851 153.373C73.6009 153.894 73.9671 156.249 75.2982 155.425C76.6298 154.6 75.8433 152.908 74.7851 153.373Z" fill="white"/>
<path d="M72.5066 10.1956C54.0303 10.8055 44.4862 21.4545 31.0421 42.0838C17.5981 62.7134 4.58317 73.0768 15.2296 92.3659C25.8761 111.655 64.5348 104.01 85.1144 104.167C105.694 104.325 128.541 102.233 136.288 82.7053C143.275 65.094 126.271 47.83 111.631 32.8437C96.9911 17.8579 90.3369 9.60766 72.5066 10.1956Z" fill="#009ED5"/>
<path d="M72.5066 10.1956C54.0303 10.8055 44.4862 21.4545 31.0421 42.0838C17.5981 62.7134 4.58317 73.0768 15.2296 92.3659C25.8761 111.655 64.5348 104.01 85.1144 104.167C105.694 104.325 128.541 102.233 136.288 82.7053C143.275 65.094 126.271 47.83 111.631 32.8437C96.9911 17.8579 90.3369 9.60766 72.5066 10.1956Z" stroke="#033E75" stroke-width="2" stroke-linecap="round" stroke-linejoin="round"/>
<path d="M78.9834 13.8086C89.9249 14.4583 96.9767 21.1503 108.723 33.3026C118.989 43.9242 138.54 57.9578 132.987 79.0844C127.433 100.211 96.1137 99.3924 66.8986 101.019C37.6836 102.645 21.5474 93.4514 22.0293 74.354C22.3778 60.5382 35.5298 47.2355 44.2533 34.6497C55.4994 18.4247 62.0481 12.8031 78.9834 13.8086Z" fill="#00C4F1"/>
<path d="M76.7549 84.5665C72.2909 87.7571 81.5035 99.8176 86.5032 95.8817C91.5033 91.9459 80.6147 81.8076 76.7549 84.5665Z" fill="#007DD2"/>
<path d="M68.147 84.8791C65.7942 86.1421 70.0651 93.4738 72.588 91.3622C75.1104 89.2507 70.4999 83.6161 68.147 84.8791Z" fill="#007DD2"/>
<path d="M73.659 12.7171C71.5849 15.2773 84.2919 21.1867 86.2947 17.6029C88.2976 14.0196 76.5277 9.17632 73.659 12.7171Z" fill="#007DD2"/>
<path d="M68.0154 15.3402C66.0323 17.0865 72.3752 21.198 73.6855 19.1593C74.996 17.1212 70.3375 13.2954 68.0154 15.3402Z" fill="#007DD2"/>
<g opacity="0.2">
<path opacity="0.2" d="M91.9587 58.5545C89.8819 60.2091 94.1808 65.727 97.0122 63.9567C99.8441 62.1864 94.035 56.9 91.9587 58.5545Z" fill="white"/>
</g>
<g opacity="0.2">
<path opacity="0.2" d="M98.7066 64.3457C97.7046 65.8925 101.916 67.2089 102.645 65.6989C103.374 64.1884 99.7082 62.799 98.7066 64.3457Z" fill="white"/>
</g>
<path d="M75.9789 67.2374C64.0893 66.1459 66.3646 40.0845 71.0448 35.7358C74.6662 32.371 75.8766 34.639 77.1223 36.7533C78.274 38.7075 79.7292 34.1418 83.1235 34.9071C89.3212 36.3043 88.998 68.4328 75.9789 67.2374Z" fill="#21385B"/>
<path d="M75.9789 67.2374C64.0893 66.1459 66.3646 40.0845 71.0448 35.7358C74.6662 32.371 75.8766 34.639 77.1223 36.7533C78.274 38.7075 79.7292 34.1418 83.1235 34.9071C89.3212 36.3043 88.998 68.4328 75.9789 67.2374Z" stroke="#122444" stroke-width="2" stroke-linecap="round" stroke-linejoin="round"/>
<path d="M83.6735 60.8181C83.6735 60.8181 80.1754 65.9816 76.5553 66.3183C72.3945 66.7055 70.1787 61.667 70.1787 61.667C70.1787 61.667 71.9701 58.8946 76.4803 58.9097C80.9905 58.9247 83.6735 60.8181 83.6735 60.8181Z" fill="#0E66A8"/>
<path d="M81.8849 35.9652C81.8849 35.9652 81.5132 35.2974 80.3179 36.784C79.1226 38.2706 76.2398 37.6929 75.5992 36.4907C74.9589 35.2888 74.0534 34.8731 74.0534 34.8731C74.0534 34.8731 71.3388 41.9581 77.3768 42.4229C83.4152 42.8878 81.8849 35.9652 81.8849 35.9652Z" fill="white"/>
<path d="M126.149 100.736C134.903 94.5796 147.75 83.7459 141.962 65.7746C137.07 50.5878 126.229 42.3666 112.86 28.8709C99.4973 15.3788 90.8161 5.61818 69.1337 7.06821C47.4462 8.5144 39.3306 22.7904 30.2586 36.6867C21.1867 50.583 5.91307 61.6493 6.87457 79.1091C7.84029 96.5641 26.4427 103.355 26.4427 103.355C26.4427 103.355 22.977 106.444 25.4914 109.896C28.4781 113.999 35.2861 106.605 40.6904 112.279C46.0973 117.956 51.7411 118.576 62.4723 112.89C73.2067 107.202 74.0798 116.504 83.2755 115.963C91.5813 115.476 92.1128 109.609 99.605 107.601C107.1 105.592 115.559 109.94 122.325 106.957C126.205 105.246 126.746 102.223 126.149 100.736ZM126.149 100.736C125.312 101.328 124.438 101.854 123.526 102.318" stroke="#033E75" stroke-width="2" stroke-linecap="round" stroke-linejoin="round"/>
<path d="M26.1696 103.28C26.1696 103.28 28.6614 105.221 31.985 105.763" stroke="#033E75" stroke-width="2" stroke-linecap="round" stroke-linejoin="round"/>
<g opacity="0.2">
<path opacity="0.2" d="M26.464 62.9789C19.7448 61.6568 10.6441 81.9764 20.7638 83.8312C30.8836 85.6867 35.1251 64.683 26.464 62.9789Z" fill="white"/>
</g>
<g opacity="0.2">
<path opacity="0.2" d="M18.173 89.2175C15.084 89.7562 15.1619 98.7051 19.0963 97.9571C23.0303 97.2092 22.0433 88.5424 18.173 89.2175Z" fill="white"/>
</g>
<g opacity="0.2">
<path opacity="0.2" d="M138.618 81.6759C132.869 79.0613 121.314 92.5509 127.781 95.7701C134.248 98.9892 144.66 84.4229 138.618 81.6759Z" fill="white"/>
</g>
<g opacity="0.2">
<path opacity="0.2" d="M112.033 97.7616C109.987 95.4348 105.847 100.458 108.256 101.896C110.665 103.334 113.658 99.6096 112.033 97.7616Z" fill="white"/>
</g>
<g opacity="0.2">
<path opacity="0.2" d="M66.3273 12.2435C70.2896 15.7553 57.0567 22.9187 54.9002 19.062C52.7437 15.2057 63.1533 9.43041 66.3273 12.2435Z" fill="white"/>
</g>
<path d="M105.78 28.8927C105.78 28.8927 113.972 17.2452 122.166 25.2629C133.601 36.4521 112.07 62.556 102.92 61.5796C93.4755 60.5707 78.6793 36.9027 86.9438 25.4368C93.1643 16.808 102.802 24.4131 105.78 28.8927Z" fill="#CE2F78"/>
<path d="M105.78 28.8927C105.78 28.8927 113.972 17.2452 122.166 25.2629C133.601 36.4521 112.07 62.556 102.92 61.5796C93.4755 60.5707 78.6793 36.9027 86.9438 25.4368C93.1643 16.808 102.802 24.4131 105.78 28.8927Z" stroke="#5B092E" stroke-width="2" stroke-linecap="round" stroke-linejoin="round"/>
<path d="M111.756 47.4141C109.103 46.2393 103.88 53.8313 107.203 55.4644C110.526 57.097 115.92 49.2588 111.756 47.4141Z" fill="#E15099"/>
<path d="M115.44 25.3841C110.028 26.0046 105.457 43.5211 114.075 45.6729C122.787 47.8479 127.069 24.0507 115.44 25.3841Z" fill="#E15099"/>
<path d="M118.286 27.0036C115.795 27.186 116.512 33.9611 119.044 33.2711C121.574 32.5811 121.141 26.7942 118.286 27.0036Z" fill="white"/>
<path d="M119.101 34.6419C117.963 34.6406 117.217 37.9607 118.932 37.801C120.647 37.6417 120.501 34.6433 119.101 34.6419Z" fill="white"/>
<path d="M53.3198 26.6742C53.3198 26.6742 61.5117 15.0267 69.7055 23.0444C81.1403 34.2335 59.61 60.3375 50.4601 59.3611C41.0151 58.3522 26.2189 34.6842 34.4834 23.2183C40.7034 14.5895 50.3412 22.1945 53.3198 26.6742Z" fill="#CE2F78"/>
<path d="M53.3198 26.6742C53.3198 26.6742 61.5117 15.0267 69.7055 23.0444C81.1403 34.2335 59.61 60.3375 50.4601 59.3611C41.0151 58.3522 26.2189 34.6842 34.4834 23.2183C40.7034 14.5895 50.3412 22.1945 53.3198 26.6742Z" stroke="#5B092E" stroke-width="2" stroke-linecap="round" stroke-linejoin="round"/>
<path d="M59.295 45.1951C56.6424 44.0203 51.4197 51.6123 54.7423 53.2454C58.065 54.878 63.4587 47.0398 59.295 45.1951Z" fill="#E15099"/>
<path d="M62.9796 23.1655C57.5669 23.7861 52.9959 41.3026 61.6149 43.4544C70.3262 45.6294 74.6081 21.8322 62.9796 23.1655Z" fill="#E15099"/>
<g opacity="0.2">
<path opacity="0.2" d="M65.8252 24.7851C63.3341 24.9675 64.0517 31.7426 66.583 31.0526C69.1137 30.3626 68.6807 24.5757 65.8252 24.7851Z" fill="white"/>
</g>
<g opacity="0.2">
<path opacity="0.2" d="M66.6406 32.4236C65.5028 32.4223 64.7562 35.7424 66.4711 35.5827C68.186 35.4234 68.0407 32.425 66.6406 32.4236Z" fill="white"/>
</g>
<path d="M33.8131 124.709C53.0047 124.57 65.799 111.299 70.2308 105.203C67.6856 104.835 67.7786 105.103 64.9989 104.795C58.4518 109.507 34.3599 123.886 25.5797 105.293C19.1615 91.7013 52.1343 84.3122 51.2892 70.5446C50.5935 59.2166 32.3539 53.8278 14.7312 72.5993C-5.93021 94.608 5.07717 124.917 33.8131 124.709Z" fill="#009ED5"/>
<path d="M33.8131 124.709C53.0047 124.57 65.799 111.299 70.2308 105.203C67.6856 104.835 67.7786 105.103 64.9989 104.795C58.4518 109.507 34.3599 123.886 25.5797 105.293C19.1615 91.7013 52.1343 84.3122 51.2892 70.5446C50.5935 59.2166 32.3539 53.8278 14.7312 72.5993C-5.93021 94.608 5.07717 124.917 33.8131 124.709Z" stroke="#033E75" stroke-width="2" stroke-linecap="round" stroke-linejoin="round"/>
<path d="M32.7344 62.8776C41.7334 59.6569 49.8508 64.9145 47.381 71.3833C43.139 82.4942 18.4588 84.2671 13.8782 101.066C9.29762 117.864 30.5099 115.749 26.8384 118.414C23.1669 121.079 4.82769 115.182 5.77431 96.2496C6.84295 74.8773 27.5912 64.7184 32.7344 62.8776Z" fill="#00C4F1"/>
<g opacity="0.2">
<path opacity="0.2" d="M37.4992 64.2404C40.0091 67.8211 25.515 75.8462 23.9325 72.0615C22.3501 68.2774 34.7493 60.3168 37.4992 64.2404Z" fill="white"/>
</g>
<g opacity="0.2">
<path opacity="0.2" d="M22.1415 73.2916C23.1089 74.6315 18.1042 79.0329 16.9051 77.3399C15.7059 75.6467 20.4632 70.9669 22.1415 73.2916Z" fill="white"/>
</g>
<path d="M122.041 128.226C103.039 125.816 92.7748 111.48 89.4202 104.931C92.216 104.652 92.0288 104.853 94.6142 104.524C100.302 109.957 120.658 126.716 133.511 110.012C143.256 97.3853 113.308 85.7812 117.032 72.3691C120.097 61.3335 139.222 58.8169 152.666 79.9687C168.429 104.768 150.493 131.835 122.041 128.226Z" fill="#009ED5"/>
<path d="M122.041 128.226C103.039 125.816 92.7748 111.48 89.4202 104.931C92.216 104.652 92.0288 104.853 94.6142 104.524C100.302 109.957 120.658 126.716 133.511 110.012C143.256 97.3853 113.308 85.7812 117.032 72.3691C120.097 61.3335 139.222 58.8169 152.666 79.9687C168.429 104.768 150.493 131.835 122.041 128.226Z" stroke="#033E75" stroke-width="2" stroke-linecap="round" stroke-linejoin="round"/>
<path d="M136.946 67.6596C128.745 63.1187 119.633 67.0509 120.711 73.7903C122.563 85.3655 144.154 90.0731 145.832 107.219C147.511 124.364 126.842 119.762 130.028 122.83C133.214 125.9 154.229 122.421 156.517 103.596C159.1 82.3459 141.634 70.2548 136.946 67.6596Z" fill="#00C4F1"/>
<g opacity="0.2">
<path opacity="0.2" d="M131.96 68.2735C128.732 71.4123 141.346 81.5169 143.702 78.0362C146.058 74.5556 135.496 64.8342 131.96 68.2735Z" fill="white"/>
</g>
<g opacity="0.2">
<path opacity="0.2" d="M145.21 79.5189C143.975 80.6892 147.988 85.7818 149.526 84.2997C151.065 82.8173 147.354 77.4887 145.21 79.5189Z" fill="white"/>
</g>
<path d="M73.4968 112.718C73.4968 112.718 69.1678 110.182 61.7451 111.184C52.2883 112.442 49.6173 119.502 42.1595 113.477" stroke="#033E75" stroke-width="2" stroke-linecap="round" stroke-linejoin="round"/>
<path d="M101.259 107.125C101.259 107.125 97.3368 107.223 90.7505 113.223" stroke="#033E75" stroke-width="2" stroke-linecap="round" stroke-linejoin="round"/>
<path d="M56.65 108.25C61.6063 109.781 66.0293 105.952 70.415 108.014" stroke="#033E75" stroke-width="2" stroke-linecap="round" stroke-linejoin="round"/>
</svg>
