<svg width="177" height="982" viewBox="0 0 177 982" fill="none" xmlns="http://www.w3.org/2000/svg">
<g opacity="0.4">
<path d="M112.299 -799.744C112.299 -823.117 115.619 -846.436 122.236 -869.673L122.588 -870.894L128.019 -865.829C121.609 -843.719 118.419 -821.704 118.419 -799.744C118.419 -787.57 119.344 -781.215 122.213 -770.88L122.619 -769.453L123.276 -767.16L123.713 -765.623C127.14 -753.422 128.364 -745.53 128.364 -731.119C128.364 -716.693 127.14 -708.802 123.713 -696.614L123.276 -695.063L122.619 -692.771L122.213 -691.344C119.413 -681.242 118.465 -674.942 118.419 -663.303V-662.494C118.419 -650.319 119.344 -643.965 122.213 -633.63L122.619 -632.203L123.276 -629.91L123.713 -628.373C127.14 -616.172 128.364 -608.28 128.364 -593.869C128.364 -579.443 127.14 -571.552 123.713 -559.364L123.276 -557.813L122.619 -555.521L122.213 -554.094C119.413 -543.992 118.465 -537.692 118.419 -526.053V-525.244C118.419 -513.069 119.344 -506.715 122.213 -496.38L122.619 -494.953L123.276 -492.66L123.713 -491.123C127.14 -478.922 128.364 -471.03 128.364 -456.619C128.364 -442.193 127.14 -434.302 123.713 -422.114L123.276 -420.563L122.619 -418.271L122.213 -416.844C119.413 -406.742 118.465 -400.442 118.419 -388.803V-387.994C118.419 -375.819 119.344 -369.465 122.213 -359.13L122.619 -357.703L123.276 -355.41L123.713 -353.873C127.14 -341.672 128.364 -333.78 128.364 -319.369C128.364 -304.943 127.14 -297.052 123.713 -284.864L123.276 -283.313L122.619 -281.021L122.213 -279.594C119.413 -269.492 118.465 -263.192 118.419 -251.553V-250.744C118.419 -238.569 119.344 -232.215 122.213 -221.88L122.619 -220.453L123.276 -218.16L123.713 -216.623C127.14 -204.422 128.364 -196.53 128.364 -182.119C128.364 -167.693 127.14 -159.802 123.713 -147.614L123.276 -146.063L122.619 -143.771L122.213 -142.344C119.413 -132.242 118.465 -125.942 118.419 -114.303V-113.494C118.419 -101.319 119.344 -94.9647 122.213 -84.6298L122.619 -83.2025L123.276 -80.9104L123.713 -79.3732C127.14 -67.1716 128.364 -59.2798 128.364 -44.8685C128.364 -30.4435 127.14 -22.5516 123.713 -10.3638L123.276 -8.81287L122.619 -6.52087L122.213 -5.09351C119.413 5.00818 118.465 11.308 118.419 22.9468V23.7565C118.419 35.9305 119.344 42.2853 122.213 52.6202L122.619 54.0476L123.276 56.3396L123.713 57.8768C127.14 70.0784 128.364 77.9702 128.364 92.3815C128.364 106.807 127.14 114.698 123.713 126.886L123.276 128.438L122.619 130.729L122.213 132.156C119.413 142.258 118.465 148.558 118.419 160.197V161.006C118.419 173.181 119.344 179.535 122.213 189.87L122.619 191.298L123.276 193.59L123.713 195.127C127.14 207.328 128.364 215.22 128.364 229.631C128.364 244.057 127.14 251.948 123.713 264.136L123.276 265.687L122.619 267.979L122.213 269.406C119.413 279.508 118.465 285.808 118.419 297.447V298.256C118.419 310.431 119.344 316.785 122.213 327.12L122.619 328.548L123.276 330.84L123.713 332.377C127.14 344.578 128.364 352.47 128.364 366.882C128.364 381.306 127.14 389.198 123.713 401.386L123.276 402.937L122.619 405.229L122.213 406.657C119.413 416.758 118.465 423.058 118.419 434.697V435.507C118.419 447.681 119.344 454.035 122.213 464.37L122.619 465.798L123.276 468.09L123.713 469.627C127.14 481.828 128.364 489.72 128.364 504.132C128.364 518.557 127.14 526.448 123.713 538.636L123.276 540.187L122.619 542.479L122.213 543.907C119.413 554.008 118.465 560.308 118.419 571.947V572.757C118.419 584.931 119.344 591.285 122.213 601.62L122.619 603.048L123.276 605.34L123.713 606.877C127.14 619.078 128.364 626.97 128.364 641.382C128.364 655.807 127.14 663.698 123.713 675.886L123.276 677.437L122.619 679.729L122.213 681.157C119.413 691.258 118.465 697.558 118.419 709.197V710.007C118.419 722.181 119.344 728.535 122.213 738.87L122.619 740.298L123.276 742.59L123.713 744.127C127.14 756.328 128.364 764.22 128.364 778.632C128.364 793.057 127.14 800.948 123.713 813.136L123.276 814.687L122.619 816.979L122.213 818.407C119.413 828.508 118.465 834.808 118.419 846.447V847.257C118.419 859.431 119.344 865.785 122.213 876.12L122.619 877.548L123.276 879.84L123.713 881.377C127.14 893.578 128.364 901.47 128.364 915.882C128.364 930.307 127.14 938.198 123.713 950.386L123.276 951.937L122.619 954.229L122.213 955.657C119.413 965.758 118.465 972.058 118.419 983.697V984.507C118.419 996.681 119.344 1003.04 122.213 1013.37L122.619 1014.8L123.276 1017.09L123.713 1018.63C127.14 1030.83 128.364 1038.72 128.364 1053.13C128.364 1067.56 127.14 1075.45 123.713 1087.64L123.276 1089.19L122.619 1091.48L122.213 1092.91C119.413 1103.01 118.465 1109.31 118.419 1120.95V1121.76C118.419 1133.93 119.344 1140.29 122.213 1150.62L122.619 1152.05L123.276 1154.34L123.713 1155.88C127.14 1168.08 128.364 1175.97 128.364 1190.38C128.364 1204.81 127.14 1212.7 123.713 1224.89L123.276 1226.44L122.619 1228.73L122.213 1230.16C119.344 1240.49 118.419 1246.85 118.419 1259.01C118.419 1280.58 121.494 1302.2 127.675 1323.93L128.019 1325.11L122.588 1330.17C115.741 1306.54 112.299 1282.79 112.299 1259.01C112.299 1244.6 113.523 1236.7 116.95 1224.5L117.386 1222.96L118.044 1220.67L118.449 1219.25C121.318 1208.91 122.244 1202.56 122.244 1190.38C122.244 1178.22 121.318 1171.87 118.449 1161.53L118.044 1160.1L117.386 1157.81L116.95 1156.26C113.523 1144.07 112.299 1136.18 112.299 1121.76C112.299 1107.35 113.523 1099.45 116.95 1087.25L117.386 1085.71L118.044 1083.42L118.449 1082C121.318 1071.66 122.244 1065.31 122.244 1053.13C122.244 1040.97 121.318 1034.62 118.449 1024.28L118.044 1022.85L117.386 1020.56L116.95 1019.01C113.523 1006.82 112.299 998.932 112.299 984.507C112.299 970.095 113.523 962.203 116.95 950.002L117.386 948.465L118.044 946.173L118.449 944.745C121.318 934.41 122.244 928.056 122.244 915.882C122.244 903.721 121.318 897.367 118.449 887.032L118.044 885.604L117.386 883.312L116.95 881.761C113.523 869.573 112.299 861.682 112.299 847.257C112.299 832.845 113.523 824.953 116.95 812.752L117.386 811.215L118.044 808.923L118.449 807.495C121.318 797.16 122.244 790.806 122.244 778.632C122.244 766.471 121.318 760.117 118.449 749.782L118.044 748.354L117.386 746.062L116.95 744.511C113.523 732.323 112.299 724.432 112.299 710.007C112.299 695.595 113.523 687.703 116.95 675.502L117.386 673.965L118.044 671.673L118.449 670.245C121.318 659.91 122.244 653.556 122.244 641.382C122.244 629.221 121.318 622.866 118.449 612.532L118.044 611.104L117.386 608.812L116.95 607.261C113.523 595.073 112.299 587.182 112.299 572.757C112.299 558.345 113.523 550.453 116.95 538.252L117.386 536.715L118.044 534.423L118.449 532.995C121.318 522.66 122.244 516.306 122.244 504.132C122.244 491.971 121.318 485.616 118.449 475.282L118.044 473.854L117.386 471.562L116.95 470.011C113.523 457.823 112.299 449.932 112.299 435.507C112.299 421.095 113.523 413.203 116.95 401.002L117.386 399.465L118.044 397.173L118.449 395.745C121.318 385.41 122.244 379.056 122.244 366.882C122.244 354.721 121.318 348.366 118.449 338.032L118.044 336.604L117.386 334.312L116.95 332.761C113.523 320.573 112.299 312.682 112.299 298.256C112.299 283.845 113.523 275.953 116.95 263.752L117.386 262.215L118.044 259.923L118.449 258.495C121.318 248.16 122.244 241.806 122.244 229.631C122.244 217.471 121.318 211.116 118.449 200.781L118.044 199.354L117.386 197.062L116.95 195.511C113.523 183.323 112.299 175.432 112.299 161.006C112.299 146.595 113.523 138.703 116.95 126.502L117.386 124.965L118.044 122.673L118.449 121.245C121.318 110.91 122.244 104.556 122.244 92.3815C122.244 80.2212 121.318 73.8665 118.449 63.5315L118.044 62.1041L117.386 59.8121L116.95 58.2612C113.523 46.0734 112.299 38.1815 112.299 23.7565C112.299 9.34521 113.523 1.45337 116.95 -10.7482L117.386 -12.2854L118.044 -14.5774L118.449 -16.0048C121.318 -26.3397 122.244 -32.6945 122.244 -44.8685C122.244 -57.0288 121.318 -63.3835 118.449 -73.7185L118.044 -75.1459L117.386 -77.4379L116.95 -78.9889C113.523 -91.1766 112.299 -99.0685 112.299 -113.494C112.299 -127.905 113.523 -135.797 116.95 -147.998L117.386 -149.535L118.044 -151.828L118.449 -153.255C121.318 -163.59 122.244 -169.944 122.244 -182.119C122.244 -194.279 121.318 -200.634 118.449 -210.969L118.044 -212.396L117.386 -214.688L116.95 -216.239C113.523 -228.427 112.299 -236.318 112.299 -250.744C112.299 -265.155 113.523 -273.047 116.95 -285.248L117.386 -286.785L118.044 -289.078L118.449 -290.505C121.318 -300.84 122.244 -307.194 122.244 -319.369C122.244 -331.529 121.318 -337.884 118.449 -348.219L118.044 -349.646L117.386 -351.938L116.95 -353.489C113.523 -365.677 112.299 -373.568 112.299 -387.994C112.299 -402.405 113.523 -410.297 116.95 -422.498L117.386 -424.035L118.044 -426.328L118.449 -427.755C121.318 -438.09 122.244 -444.444 122.244 -456.619C122.244 -468.779 121.318 -475.134 118.449 -485.469L118.044 -486.896L117.386 -489.188L116.95 -490.739C113.523 -502.927 112.299 -510.818 112.299 -525.244C112.299 -539.655 113.523 -547.547 116.95 -559.748L117.386 -561.285L118.044 -563.578L118.449 -565.005C121.318 -575.34 122.244 -581.694 122.244 -593.869C122.244 -606.029 121.318 -612.384 118.449 -622.719L118.044 -624.146L117.386 -626.438L116.95 -627.989C113.523 -640.177 112.299 -648.068 112.299 -662.494C112.299 -676.905 113.523 -684.797 116.95 -696.998L117.386 -698.535L118.044 -700.828L118.449 -702.255C121.318 -712.59 122.244 -718.945 122.244 -731.119C122.244 -743.279 121.318 -749.634 118.449 -759.969L118.044 -761.396L117.386 -763.688L116.95 -765.239C113.523 -777.427 112.299 -785.319 112.299 -799.744Z" fill="#34BAFF"/>
<path d="M117.821 335.495C116.058 330.016 115.165 324.376 117.163 322.306C119.162 320.236 121.611 324.265 123.374 329.744C125.137 335.223 127.681 350.122 126.537 351.344C125.392 352.566 119.584 340.974 117.821 335.495Z" fill="#34B9FF"/>
</g>
<g opacity="0.4">
<path d="M103.515 -1018.63C103.515 -1046.86 99.4786 -1075.02 91.4341 -1103.08L91.0063 -1104.56L84.4033 -1098.44C92.1967 -1071.74 96.0748 -1045.15 96.0748 -1018.63C96.0748 -1003.93 94.9495 -996.255 91.462 -983.773L90.9691 -982.05L90.1693 -979.282L89.6392 -977.425C85.4728 -962.69 83.9848 -953.16 83.9848 -935.756C83.9848 -918.335 85.4728 -908.805 89.6392 -894.086L90.1693 -892.213L90.9691 -889.445L91.462 -887.721C94.8658 -875.522 96.019 -867.914 96.0748 -853.859V-852.881C96.0748 -838.179 94.9495 -830.505 91.462 -818.023L90.9691 -816.3L90.1693 -813.532L89.6392 -811.675C85.4728 -796.94 83.9848 -787.41 83.9848 -770.006C83.9848 -752.585 85.4728 -743.055 89.6392 -728.336L90.1693 -726.463L90.9691 -723.695L91.462 -721.971C94.8658 -709.772 96.019 -702.164 96.0748 -688.109V-687.131C96.0748 -672.429 94.9495 -664.755 91.462 -652.273L90.9691 -650.55L90.1693 -647.782L89.6392 -645.925C85.4728 -631.19 83.9848 -621.66 83.9848 -604.256C83.9848 -586.835 85.4728 -577.305 89.6392 -562.586L90.1693 -560.713L90.9691 -557.945L91.462 -556.221C94.8658 -544.022 96.019 -536.414 96.0748 -522.359V-521.381C96.0748 -506.679 94.9495 -499.005 91.462 -486.524L90.9691 -484.8L90.1693 -482.032L89.6392 -480.175C85.4728 -465.44 83.9848 -455.91 83.9848 -438.506C83.9848 -421.085 85.4728 -411.555 89.6392 -396.836L90.1693 -394.963L90.9691 -392.195L91.462 -390.472C94.8658 -378.272 96.019 -370.664 96.0748 -356.609V-355.631C96.0748 -340.929 94.9495 -333.255 91.462 -320.774L90.9691 -319.05L90.1693 -316.282L89.6392 -314.425C85.4728 -299.69 83.9848 -290.16 83.9848 -272.756C83.9848 -255.335 85.4728 -245.805 89.6392 -231.086L90.1693 -229.213L90.9691 -226.445L91.462 -224.722C94.8658 -212.522 96.019 -204.914 96.0748 -190.859V-189.881C96.0748 -175.179 94.9495 -167.505 91.462 -155.024L90.9691 -153.3L90.1693 -150.532L89.6392 -148.675C85.4728 -133.94 83.9848 -124.41 83.9848 -107.006C83.9848 -89.5854 85.4728 -80.0548 89.6392 -65.3362L90.1693 -63.4633L90.9691 -60.6953L91.462 -58.9716C94.8658 -46.7723 96.019 -39.1643 96.0748 -25.1086V-24.1309C96.0748 -9.42883 94.9495 -1.75452 91.462 10.7264L90.9691 12.4502L90.1693 15.2183L89.6392 17.0746C85.4728 31.8098 83.9848 41.3405 83.9848 58.7441C83.9848 76.1646 85.4728 85.6952 89.6392 100.414L90.1693 102.288L90.9691 105.055L91.462 106.779C94.8658 118.978 96.019 126.586 96.0748 140.641V141.619C96.0748 156.321 94.9495 163.995 91.462 176.476L90.9691 178.2L90.1693 180.968L89.6392 182.825C85.4728 197.56 83.9848 207.09 83.9848 224.494C83.9848 241.915 85.4728 251.445 89.6392 266.164L90.1693 268.037L90.9691 270.805L91.462 272.529C94.8658 284.728 96.019 292.336 96.0748 306.391V307.369C96.0748 322.071 94.9495 329.745 91.462 342.226L90.9691 343.95L90.1693 346.718L89.6392 348.575C85.4728 363.31 83.9848 372.84 83.9848 390.244C83.9848 407.665 85.4728 417.195 89.6392 431.914L90.1693 433.787L90.9691 436.555L91.462 438.279C94.8658 450.478 96.019 458.086 96.0748 472.141V473.119C96.0748 487.821 94.9495 495.495 91.462 507.976L90.9691 509.7L90.1693 512.468L89.6392 514.325C85.4728 529.06 83.9848 538.59 83.9848 555.994C83.9848 573.415 85.4728 582.945 89.6392 597.664L90.1693 599.537L90.9691 602.305L91.462 604.029C94.8658 616.228 96.019 623.836 96.0748 637.891V638.869C96.0748 653.571 94.9495 661.245 91.462 673.726L90.9691 675.45L90.1693 678.218L89.6392 680.075C85.4728 694.81 83.9848 704.34 83.9848 721.744C83.9848 739.165 85.4728 748.695 89.6392 763.414L90.1693 765.287L90.9691 768.055L91.462 769.779C94.8658 781.978 96.019 789.586 96.0748 803.641V804.619C96.0748 819.321 94.9495 826.995 91.462 839.476L90.9691 841.2L90.1693 843.968L89.6392 845.825C85.4728 860.56 83.9848 870.09 83.9848 887.494C83.9848 904.915 85.4728 914.445 89.6392 929.164L90.1693 931.037L90.9691 933.805L91.462 935.529C94.8658 947.728 96.019 955.336 96.0748 969.391V970.369C96.0748 985.071 94.9495 992.745 91.462 1005.23L90.9691 1006.95L90.1693 1009.72L89.6392 1011.57C85.4728 1026.31 83.9848 1035.84 83.9848 1053.24C83.9848 1070.66 85.4728 1080.2 89.6392 1094.91L90.1693 1096.79L90.9691 1099.55L91.462 1101.28C94.8658 1113.48 96.019 1121.09 96.0748 1135.14V1136.12C96.0748 1150.82 94.9495 1158.5 91.462 1170.98L90.9691 1172.7L90.1693 1175.47L89.6392 1177.32C85.4728 1192.06 83.9848 1201.59 83.9848 1218.99C83.9848 1236.41 85.4728 1245.95 89.6392 1260.66L90.1693 1262.54L90.9691 1265.3L91.462 1267.03C94.8658 1279.23 96.019 1286.84 96.0748 1300.89V1301.87C96.0748 1316.57 94.9495 1324.25 91.462 1336.73L90.9691 1338.45L90.1693 1341.22L89.6392 1343.07C85.4728 1357.81 83.9848 1367.34 83.9848 1384.74C83.9848 1402.16 85.4728 1411.7 89.6392 1426.41L90.1693 1428.29L90.9691 1431.05L91.462 1432.78C94.9495 1445.26 96.0748 1452.93 96.0748 1467.62C96.0748 1493.68 92.3362 1519.78 84.8218 1546.02L84.4033 1547.44L91.0063 1553.56C99.3298 1525.02 103.515 1496.34 103.515 1467.62C103.515 1450.22 102.027 1440.68 97.8604 1425.95L97.3303 1424.09L96.5305 1421.33L96.0376 1419.6C92.5501 1407.12 91.4248 1399.45 91.4248 1384.74C91.4248 1370.06 92.5501 1362.38 96.0376 1349.9L96.5305 1348.18L97.3303 1345.41L97.8604 1343.54C102.027 1328.82 103.515 1319.29 103.515 1301.87C103.515 1284.47 102.027 1274.93 97.8604 1260.2L97.3303 1258.34L96.5305 1255.58L96.0376 1253.85C92.5501 1241.37 91.4248 1233.7 91.4248 1218.99C91.4248 1204.31 92.5501 1196.63 96.0376 1184.15L96.5305 1182.43L97.3303 1179.66L97.8604 1177.79C102.027 1163.07 103.515 1153.54 103.515 1136.12C103.515 1118.72 102.027 1109.18 97.8604 1094.45L97.3303 1092.59L96.5305 1089.83L96.0376 1088.1C92.5501 1075.62 91.4248 1067.95 91.4248 1053.24C91.4248 1038.56 92.5501 1030.88 96.0376 1018.4L96.5305 1016.68L97.3303 1013.91L97.8604 1012.04C102.027 997.32 103.515 987.79 103.515 970.369C103.515 952.965 102.027 943.435 97.8604 928.7L97.3303 926.843L96.5305 924.075L96.0376 922.351C92.5501 909.87 91.4248 902.196 91.4248 887.494C91.4248 872.809 92.5501 865.135 96.0376 852.654L96.5305 850.93L97.3303 848.162L97.8604 846.289C102.027 831.57 103.515 822.04 103.515 804.619C103.515 787.215 102.027 777.685 97.8604 762.95L97.3303 761.093L96.5305 758.325L96.0376 756.601C92.5501 744.12 91.4248 736.446 91.4248 721.744C91.4248 707.059 92.5501 699.384 96.0376 686.904L96.5305 685.18L97.3303 682.412L97.8604 680.539C102.027 665.82 103.515 656.29 103.515 638.869C103.515 621.465 102.027 611.935 97.8604 597.2L97.3303 595.343L96.5305 592.575L96.0376 590.851C92.5501 578.37 91.4248 570.696 91.4248 555.994C91.4248 541.309 92.5501 533.634 96.0376 521.154L96.5305 519.43L97.3303 516.662L97.8604 514.789C102.027 500.07 103.515 490.54 103.515 473.119C103.515 455.715 102.027 446.185 97.8604 431.45L97.3303 429.593L96.5305 426.825L96.0376 425.101C92.5501 412.62 91.4248 404.946 91.4248 390.244C91.4248 375.559 92.5501 367.885 96.0376 355.404L96.5305 353.68L97.3303 350.912L97.8604 349.039C102.027 334.32 103.515 324.79 103.515 307.369C103.515 289.965 102.027 280.435 97.8604 265.7L97.3303 263.843L96.5305 261.075L96.0376 259.351C92.5501 246.87 91.4248 239.196 91.4248 224.494C91.4248 209.809 92.5501 202.135 96.0376 189.654L96.5305 187.93L97.3303 185.162L97.8604 183.289C102.027 168.57 103.515 159.04 103.515 141.619C103.515 124.215 102.027 114.685 97.8604 99.9496L97.3303 98.0933L96.5305 95.3252L96.0376 93.6014C92.5501 81.1205 91.4248 73.4462 91.4248 58.7441C91.4248 44.0587 92.5501 36.3845 96.0376 23.9036L96.5305 22.1797L97.3303 19.4117L97.8604 17.5388C102.027 2.82019 103.515 -6.71045 103.515 -24.1309C103.515 -41.5345 102.027 -51.0652 97.8604 -65.8004L97.3303 -67.6567L96.5305 -70.4248L96.0376 -72.1486C92.5501 -84.6295 91.4248 -92.3038 91.4248 -107.006C91.4248 -121.691 92.5501 -129.365 96.0376 -141.847L96.5305 -143.57L97.3303 -146.338L97.8604 -148.211C102.027 -162.93 103.515 -172.46 103.515 -189.881C103.515 -207.285 102.027 -216.815 97.8604 -231.55L97.3303 -233.407L96.5305 -236.175L96.0376 -237.899C92.5501 -250.38 91.4248 -258.054 91.4248 -272.756C91.4248 -287.441 92.5501 -295.115 96.0376 -307.597L96.5305 -309.32L97.3303 -312.088L97.8604 -313.961C102.027 -328.68 103.515 -338.21 103.515 -355.631C103.515 -373.035 102.027 -382.565 97.8604 -397.3L97.3303 -399.157L96.5305 -401.925L96.0376 -403.649C92.5501 -416.13 91.4248 -423.804 91.4248 -438.506C91.4248 -453.191 92.5501 -460.865 96.0376 -473.347L96.5305 -475.07L97.3303 -477.838L97.8604 -479.711C102.027 -494.43 103.515 -503.96 103.515 -521.381C103.515 -538.785 102.027 -548.315 97.8604 -563.05L97.3303 -564.907L96.5305 -567.675L96.0376 -569.398C92.5501 -581.88 91.4248 -589.554 91.4248 -604.256C91.4248 -618.941 92.5501 -626.615 96.0376 -639.096L96.5305 -640.82L97.3303 -643.588L97.8604 -645.461C102.027 -660.18 103.515 -669.71 103.515 -687.131C103.515 -704.535 102.027 -714.065 97.8604 -728.8L97.3303 -730.657L96.5305 -733.425L96.0376 -735.148C92.5501 -747.63 91.4248 -755.304 91.4248 -770.006C91.4248 -784.691 92.5501 -792.365 96.0376 -804.846L96.5305 -806.57L97.3303 -809.338L97.8604 -811.211C102.027 -825.93 103.515 -835.46 103.515 -852.881C103.515 -870.285 102.027 -879.815 97.8604 -894.55L97.3303 -896.407L96.5305 -899.175L96.0376 -900.898C92.5501 -913.38 91.4248 -921.054 91.4248 -935.756C91.4248 -950.441 92.5501 -958.115 96.0376 -970.596L96.5305 -972.32L97.3303 -975.088L97.8604 -976.961C102.027 -991.68 103.515 -1001.21 103.515 -1018.63Z" fill="#34BAFF"/>
<path d="M91.8775 378.677C92.3201 371.077 91.7528 364.069 88.9623 363.553C86.1718 363.036 84.5675 369.643 84.1249 377.242C83.6823 384.842 84.9766 403.518 86.5844 403.854C88.1921 404.19 91.4349 386.276 91.8775 378.677Z" fill="#34B9FF"/>
</g>
<g opacity="0.4">
<path d="M76.2351 -895.807C76.2351 -920.33 79.5552 -944.796 86.1725 -969.175L86.5244 -970.457L91.9559 -965.143C85.5452 -941.945 82.3551 -918.847 82.3551 -895.807C82.3551 -883.034 83.2808 -876.367 86.1495 -865.524L86.555 -864.026L87.2129 -861.622L87.6489 -860.009C91.0761 -847.207 92.3001 -838.927 92.3001 -823.807C92.3001 -808.673 91.0761 -800.393 87.6489 -787.605L87.2129 -785.978L86.555 -783.573L86.1495 -782.076C83.3496 -771.478 82.401 -764.868 82.3551 -752.657V-751.807C82.3551 -739.034 83.2808 -732.367 86.1495 -721.524L86.555 -720.026L87.2129 -717.622L87.6489 -716.009C91.0761 -703.207 92.3001 -694.927 92.3001 -679.807C92.3001 -664.673 91.0761 -656.393 87.6489 -643.606L87.2129 -641.978L86.555 -639.573L86.1495 -638.076C83.3496 -627.478 82.401 -620.868 82.3551 -608.657V-607.807C82.3551 -595.034 83.2808 -588.367 86.1495 -577.524L86.555 -576.026L87.2129 -573.622L87.6489 -572.009C91.0761 -559.207 92.3001 -550.927 92.3001 -535.807C92.3001 -520.673 91.0761 -512.393 87.6489 -499.606L87.2129 -497.978L86.555 -495.573L86.1495 -494.076C83.3496 -483.478 82.401 -476.868 82.3551 -464.657V-463.807C82.3551 -451.034 83.2808 -444.367 86.1495 -433.524L86.555 -432.026L87.2129 -429.622L87.6489 -428.009C91.0761 -415.207 92.3001 -406.927 92.3001 -391.807C92.3001 -376.673 91.0761 -368.393 87.6489 -355.606L87.2129 -353.978L86.555 -351.573L86.1495 -350.076C83.3496 -339.478 82.401 -332.868 82.3551 -320.657V-319.807C82.3551 -307.034 83.2808 -300.367 86.1495 -289.524L86.555 -288.026L87.2129 -285.622L87.6489 -284.009C91.0761 -271.207 92.3001 -262.927 92.3001 -247.807C92.3001 -232.673 91.0761 -224.393 87.6489 -211.606L87.2129 -209.978L86.555 -207.573L86.1495 -206.076C83.3496 -195.478 82.401 -188.868 82.3551 -176.657V-175.807C82.3551 -163.034 83.2808 -156.367 86.1495 -145.524L86.555 -144.026L87.2129 -141.622L87.6489 -140.009C91.0761 -127.207 92.3001 -118.927 92.3001 -103.807C92.3001 -88.6729 91.0761 -80.3928 87.6489 -67.6056L87.2129 -65.9784L86.555 -63.5736L86.1495 -62.076C83.3496 -51.4777 82.401 -44.8679 82.3551 -32.6567V-31.8073C82.3551 -19.0344 83.2808 -12.3672 86.1495 -1.52393L86.555 -0.0263672L87.2129 2.37842L87.6489 3.99121C91.0761 16.7927 92.3001 25.0728 92.3001 40.1927C92.3001 55.3271 91.0761 63.6072 87.6489 76.3944L87.2129 78.0231L86.555 80.4264L86.1495 81.924C83.3496 92.5223 82.401 99.1321 82.3551 111.343V112.193C82.3551 124.966 83.2808 131.633 86.1495 142.476L86.555 143.974L87.2129 146.378L87.6489 147.991C91.0761 160.793 92.3001 169.073 92.3001 184.193C92.3001 199.327 91.0761 207.607 87.6489 220.394L87.2129 222.022L86.555 224.426L86.1495 225.924C83.3496 236.522 82.401 243.132 82.3551 255.343V256.193C82.3551 268.966 83.2808 275.633 86.1495 286.476L86.555 287.974L87.2129 290.378L87.6489 291.991C91.0761 304.793 92.3001 313.073 92.3001 328.193C92.3001 343.327 91.0761 351.607 87.6489 364.394L87.2129 366.022L86.555 368.426L86.1495 369.924C83.3496 380.522 82.401 387.132 82.3551 399.343V400.193C82.3551 412.966 83.2808 419.633 86.1495 430.476L86.555 431.974L87.2129 434.378L87.6489 435.991C91.0761 448.793 92.3001 457.073 92.3001 472.193C92.3001 487.327 91.0761 495.607 87.6489 508.394L87.2129 510.022L86.555 512.426L86.1495 513.924C83.3496 524.522 82.401 531.132 82.3551 543.343V544.193C82.3551 556.966 83.2808 563.633 86.1495 574.476L86.555 575.974L87.2129 578.378L87.6489 579.991C91.0761 592.793 92.3001 601.073 92.3001 616.193C92.3001 631.327 91.0761 639.607 87.6489 652.394L87.2129 654.022L86.555 656.426L86.1495 657.924C83.3496 668.522 82.401 675.132 82.3551 687.343V688.193C82.3551 700.966 83.2808 707.633 86.1495 718.476L86.555 719.974L87.2129 722.378L87.6489 723.991C91.0761 736.793 92.3001 745.073 92.3001 760.193C92.3001 775.327 91.0761 783.607 87.6489 796.394L87.2129 798.022L86.555 800.426L86.1495 801.924C83.3496 812.522 82.401 819.132 82.3551 831.343V832.193C82.3551 844.966 83.2808 851.633 86.1495 862.476L86.555 863.974L87.2129 866.378L87.6489 867.991C91.0761 880.793 92.3001 889.073 92.3001 904.193C92.3001 919.327 91.0761 927.607 87.6489 940.394L87.2129 942.022L86.555 944.426L86.1495 945.924C83.3496 956.522 82.401 963.132 82.3551 975.343V976.193C82.3551 988.966 83.2808 995.633 86.1495 1006.48L86.555 1007.97L87.2129 1010.38L87.6489 1011.99C91.0761 1024.79 92.3001 1033.07 92.3001 1048.19C92.3001 1063.33 91.0761 1071.61 87.6489 1084.39L87.2129 1086.02L86.555 1088.43L86.1495 1089.92C83.3496 1100.52 82.401 1107.13 82.3551 1119.34V1120.19C82.3551 1132.97 83.2808 1139.63 86.1495 1150.48L86.555 1151.97L87.2129 1154.38L87.6489 1155.99C91.0761 1168.79 92.3001 1177.07 92.3001 1192.19C92.3001 1207.33 91.0761 1215.61 87.6489 1228.39L87.2129 1230.02L86.555 1232.43L86.1495 1233.92C83.2808 1244.77 82.3551 1251.43 82.3551 1264.19C82.3551 1286.83 85.4304 1309.51 91.6116 1332.3L91.9559 1333.54L86.5244 1338.86C79.6776 1314.06 76.2351 1289.15 76.2351 1264.19C76.2351 1249.07 77.4591 1240.79 80.8863 1227.99L81.3224 1226.38L81.9803 1223.97L82.3857 1222.48C85.2545 1211.63 86.1801 1204.97 86.1801 1192.19C86.1801 1179.43 85.2545 1172.77 82.3857 1161.92L81.9803 1160.43L81.3224 1158.02L80.8863 1156.39C77.4591 1143.61 76.2351 1135.33 76.2351 1120.19C76.2351 1105.07 77.4591 1096.79 80.8863 1083.99L81.3224 1082.38L81.9803 1079.97L82.3857 1078.48C85.2545 1067.63 86.1801 1060.97 86.1801 1048.19C86.1801 1035.43 85.2545 1028.77 82.3857 1017.92L81.9803 1016.43L81.3224 1014.02L80.8863 1012.39C77.4591 999.607 76.2351 991.327 76.2351 976.193C76.2351 961.073 77.4591 952.793 80.8863 939.991L81.3224 938.378L81.9803 935.974L82.3857 934.476C85.2545 923.633 86.1801 916.966 86.1801 904.193C86.1801 891.434 85.2545 884.767 82.3857 873.924L81.9803 872.426L81.3224 870.022L80.8863 868.394C77.4591 855.607 76.2351 847.327 76.2351 832.193C76.2351 817.073 77.4591 808.793 80.8863 795.991L81.3224 794.378L81.9803 791.974L82.3857 790.476C85.2545 779.633 86.1801 772.966 86.1801 760.193C86.1801 747.434 85.2545 740.767 82.3857 729.924L81.9803 728.426L81.3224 726.022L80.8863 724.394C77.4591 711.607 76.2351 703.327 76.2351 688.193C76.2351 673.073 77.4591 664.793 80.8863 651.991L81.3224 650.378L81.9803 647.974L82.3857 646.476C85.2545 635.633 86.1801 628.966 86.1801 616.193C86.1801 603.434 85.2545 596.767 82.3857 585.924L81.9803 584.426L81.3224 582.022L80.8863 580.394C77.4591 567.607 76.2351 559.327 76.2351 544.193C76.2351 529.073 77.4591 520.793 80.8863 507.991L81.3224 506.378L81.9803 503.974L82.3857 502.476C85.2545 491.633 86.1801 484.966 86.1801 472.193C86.1801 459.434 85.2545 452.767 82.3857 441.924L81.9803 440.426L81.3224 438.022L80.8863 436.394C77.4591 423.607 76.2351 415.327 76.2351 400.193C76.2351 385.073 77.4591 376.793 80.8863 363.991L81.3224 362.378L81.9803 359.974L82.3857 358.476C85.2545 347.633 86.1801 340.966 86.1801 328.193C86.1801 315.434 85.2545 308.767 82.3857 297.924L81.9803 296.426L81.3224 294.022L80.8863 292.394C77.4591 279.607 76.2351 271.327 76.2351 256.193C76.2351 241.073 77.4591 232.793 80.8863 219.991L81.3224 218.378L81.9803 215.974L82.3857 214.476C85.2545 203.633 86.1801 196.966 86.1801 184.193C86.1801 171.434 85.2545 164.767 82.3857 153.924L81.9803 152.426L81.3224 150.022L80.8863 148.394C77.4591 135.607 76.2351 127.327 76.2351 112.193C76.2351 97.0728 77.4591 88.7927 80.8863 75.9912L81.3224 74.3784L81.9803 71.9736L82.3857 70.4761C85.2545 59.6328 86.1801 52.9656 86.1801 40.1927C86.1801 27.4343 85.2545 20.7672 82.3857 9.92395L81.9803 8.42639L81.3224 6.02161L80.8863 4.39441C77.4591 -8.39282 76.2351 -16.6729 76.2351 -31.8073C76.2351 -46.9272 77.4591 -55.2073 80.8863 -68.0088L81.3224 -69.6216L81.9803 -72.0264L82.3857 -73.5239C85.2545 -84.3672 86.1801 -91.0344 86.1801 -103.807C86.1801 -116.566 85.2545 -123.233 82.3857 -134.076L81.9803 -135.574L81.3224 -137.978L80.8863 -139.606C77.4591 -152.393 76.2351 -160.673 76.2351 -175.807C76.2351 -190.927 77.4591 -199.207 80.8863 -212.009L81.3224 -213.622L81.9803 -216.026L82.3857 -217.524C85.2545 -228.367 86.1801 -235.034 86.1801 -247.807C86.1801 -260.566 85.2545 -267.233 82.3857 -278.076L81.9803 -279.573L81.3224 -281.978L80.8863 -283.606C77.4591 -296.393 76.2351 -304.673 76.2351 -319.807C76.2351 -334.927 77.4591 -343.207 80.8863 -356.009L81.3224 -357.622L81.9803 -360.026L82.3857 -361.524C85.2545 -372.367 86.1801 -379.034 86.1801 -391.807C86.1801 -404.566 85.2545 -411.233 82.3857 -422.076L81.9803 -423.573L81.3224 -425.978L80.8863 -427.606C77.4591 -440.393 76.2351 -448.673 76.2351 -463.807C76.2351 -478.927 77.4591 -487.207 80.8863 -500.009L81.3224 -501.622L81.9803 -504.026L82.3857 -505.524C85.2545 -516.367 86.1801 -523.034 86.1801 -535.807C86.1801 -548.566 85.2545 -555.233 82.3857 -566.076L81.9803 -567.573L81.3224 -569.978L80.8863 -571.606C77.4591 -584.393 76.2351 -592.673 76.2351 -607.807C76.2351 -622.927 77.4591 -631.207 80.8863 -644.009L81.3224 -645.622L81.9803 -648.026L82.3857 -649.524C85.2545 -660.367 86.1801 -667.034 86.1801 -679.807C86.1801 -692.566 85.2545 -699.233 82.3857 -710.076L81.9803 -711.573L81.3224 -713.978L80.8863 -715.605C77.4591 -728.393 76.2351 -736.673 76.2351 -751.807C76.2351 -766.927 77.4591 -775.207 80.8863 -788.009L81.3224 -789.622L81.9803 -792.026L82.3857 -793.524C85.2545 -804.367 86.1801 -811.034 86.1801 -823.807C86.1801 -836.566 85.2545 -843.233 82.3857 -854.076L81.9803 -855.573L81.3224 -857.978L80.8863 -859.605C77.4591 -872.393 76.2351 -880.673 76.2351 -895.807Z" fill="#34BAFF"/>
<path d="M85.0851 345.007C85.8669 338.535 87.3478 333.051 89.5981 334.014C91.8484 334.977 92.1187 341.211 91.3369 347.683C90.5551 354.155 86.7781 368.878 85.4759 368.354C84.1736 367.831 84.3033 351.48 85.0851 345.007Z" fill="#34B9FF"/>
</g>
<g opacity="0.4">
<path d="M68.9219 -1096.72C68.9219 -1124.95 64.8857 -1153.11 56.8412 -1181.17L56.4134 -1182.64L49.8104 -1176.53C57.6038 -1149.82 61.4819 -1123.24 61.4819 -1096.72C61.4819 -1082.02 60.3566 -1074.34 56.8691 -1061.86L56.3762 -1060.14L55.5764 -1057.37L55.0463 -1055.51C50.8799 -1040.78 49.3919 -1031.25 49.3919 -1013.84C49.3919 -996.423 50.8799 -986.892 55.0463 -972.173L55.5764 -970.301L56.3762 -967.532L56.8691 -965.809C60.2729 -953.609 61.4261 -946.001 61.4819 -931.946V-930.968C61.4819 -916.266 60.3566 -908.592 56.8691 -896.111L56.3762 -894.387L55.5764 -891.619L55.0463 -889.762C50.8799 -875.027 49.3919 -865.497 49.3919 -848.093C49.3919 -830.673 50.8799 -821.142 55.0463 -806.423L55.5764 -804.551L56.3762 -801.782L56.8691 -800.059C60.2729 -787.859 61.4261 -780.251 61.4819 -766.196V-765.218C61.4819 -750.516 60.3566 -742.842 56.8691 -730.361L56.3762 -728.637L55.5764 -725.869L55.0463 -724.012C50.8799 -709.277 49.3919 -699.747 49.3919 -682.343C49.3919 -664.923 50.8799 -655.392 55.0463 -640.673L55.5764 -638.801L56.3762 -636.032L56.8691 -634.309C60.2729 -622.109 61.4261 -614.501 61.4819 -600.446V-599.468C61.4819 -584.766 60.3566 -577.092 56.8691 -564.611L56.3762 -562.887L55.5764 -560.119L55.0463 -558.263C50.8799 -543.527 49.3919 -533.997 49.3919 -516.593C49.3919 -499.173 50.8799 -489.642 55.0463 -474.923L55.5764 -473.05L56.3762 -470.282L56.8691 -468.559C60.2729 -456.359 61.4261 -448.751 61.4819 -434.696V-433.718C61.4819 -419.016 60.3566 -411.342 56.8691 -398.861L56.3762 -397.137L55.5764 -394.369L55.0463 -392.513C50.8799 -377.777 49.3919 -368.247 49.3919 -350.843C49.3919 -333.423 50.8799 -323.892 55.0463 -309.173L55.5764 -307.3L56.3762 -304.532L56.8691 -302.809C60.2729 -290.609 61.4261 -283.001 61.4819 -268.946V-267.968C61.4819 -253.266 60.3566 -245.592 56.8691 -233.111L56.3762 -231.387L55.5764 -228.619L55.0463 -226.763C50.8799 -212.027 49.3919 -202.497 49.3919 -185.093C49.3919 -167.673 50.8799 -158.142 55.0463 -143.423L55.5764 -141.55L56.3762 -138.782L56.8691 -137.059C60.2729 -124.859 61.4261 -117.251 61.4819 -103.196V-102.218C61.4819 -87.516 60.3566 -79.8417 56.8691 -67.3607L56.3762 -65.637L55.5764 -62.8689L55.0463 -61.0126C50.8799 -46.2773 49.3919 -36.7467 49.3919 -19.343C49.3919 -1.92261 50.8799 7.60803 55.0463 22.3267L55.5764 24.2012L56.3762 26.9675L56.8691 28.6914C60.2729 40.8905 61.4261 48.4985 61.4819 62.5542V63.532C61.4819 78.234 60.3566 85.9083 56.8691 98.3893L56.3762 100.113L55.5764 102.881L55.0463 104.737C50.8799 119.473 49.3919 129.003 49.3919 146.407C49.3919 163.827 50.8799 173.358 55.0463 188.077L55.5764 189.95L56.3762 192.718L56.8691 194.441C60.2729 206.641 61.4261 214.249 61.4819 228.304V229.282C61.4819 243.984 60.3566 251.658 56.8691 264.139L56.3762 265.863L55.5764 268.631L55.0463 270.487C50.8799 285.223 49.3919 294.753 49.3919 312.157C49.3919 329.577 50.8799 339.108 55.0463 353.827L55.5764 355.7L56.3762 358.468L56.8691 360.191C60.2729 372.391 61.4261 379.999 61.4819 394.054V395.032C61.4819 409.734 60.3566 417.408 56.8691 429.889L56.3762 431.613L55.5764 434.381L55.0463 436.237C50.8799 450.973 49.3919 460.503 49.3919 477.907C49.3919 495.327 50.8799 504.858 55.0463 519.577L55.5764 521.45L56.3762 524.218L56.8691 525.941C60.2729 538.141 61.4261 545.749 61.4819 559.804V560.782C61.4819 575.484 60.3566 583.158 56.8691 595.639L56.3762 597.363L55.5764 600.131L55.0463 601.987C50.8799 616.723 49.3919 626.253 49.3919 643.657C49.3919 661.077 50.8799 670.608 55.0463 685.327L55.5764 687.2L56.3762 689.968L56.8691 691.691C60.2729 703.891 61.4261 711.498 61.4819 725.554V726.532C61.4819 741.234 60.3566 748.908 56.8691 761.389L56.3762 763.113L55.5764 765.881L55.0463 767.737C50.8799 782.473 49.3919 792.003 49.3919 809.407C49.3919 826.827 50.8799 836.358 55.0463 851.077L55.5764 852.95L56.3762 855.718L56.8691 857.441C60.2729 869.641 61.4261 877.249 61.4819 891.304V892.282C61.4819 906.984 60.3566 914.658 56.8691 927.139L56.3762 928.863L55.5764 931.631L55.0463 933.488C50.8799 948.223 49.3919 957.753 49.3919 975.157C49.3919 992.577 50.8799 1002.11 55.0463 1016.83L55.5764 1018.7L56.3762 1021.47L56.8691 1023.19C60.2729 1035.39 61.4261 1043 61.4819 1057.05V1058.03C61.4819 1072.73 60.3566 1080.41 56.8691 1092.89L56.3762 1094.61L55.5764 1097.38L55.0463 1099.24C50.8799 1113.97 49.3919 1123.5 49.3919 1140.91C49.3919 1158.33 50.8799 1167.86 55.0463 1182.58L55.5764 1184.45L56.3762 1187.22L56.8691 1188.94C60.2729 1201.14 61.4261 1208.75 61.4819 1222.8V1223.78C61.4819 1238.48 60.3566 1246.16 56.8691 1258.64L56.3762 1260.36L55.5764 1263.13L55.0463 1264.99C50.8799 1279.72 49.3919 1289.25 49.3919 1306.66C49.3919 1324.08 50.8799 1333.61 55.0463 1348.33L55.5764 1350.2L56.3762 1352.97L56.8691 1354.69C60.3566 1367.17 61.4819 1374.85 61.4819 1389.53C61.4819 1415.59 57.7433 1441.69 50.2289 1467.93L49.8104 1469.36L56.4134 1475.47C64.7369 1446.93 68.9219 1418.26 68.9219 1389.53C68.9219 1372.13 67.4339 1362.6 63.2675 1347.86L62.7374 1346.01L61.9376 1343.24L61.4447 1341.51C57.9572 1329.03 56.8319 1321.36 56.8319 1306.66C56.8319 1291.97 57.9572 1284.3 61.4447 1271.82L61.9376 1270.09L62.7374 1267.32L63.2675 1265.45C67.4339 1250.73 68.9219 1241.2 68.9219 1223.78C68.9219 1206.38 67.4339 1196.85 63.2675 1182.11L62.7374 1180.26L61.9376 1177.49L61.4447 1175.76C57.9572 1163.28 56.8319 1155.61 56.8319 1140.91C56.8319 1126.22 57.9572 1118.55 61.4447 1106.07L61.9376 1104.34L62.7374 1101.57L63.2675 1099.7C67.4339 1084.98 68.9219 1075.45 68.9219 1058.03C68.9219 1040.63 67.4339 1031.1 63.2675 1016.36L62.7374 1014.51L61.9376 1011.74L61.4447 1010.01C57.9572 997.533 56.8319 989.859 56.8319 975.157C56.8319 960.472 57.9572 952.797 61.4447 940.316L61.9376 938.593L62.7374 935.825L63.2675 933.952C67.4339 919.233 68.9219 909.702 68.9219 892.282C68.9219 874.878 67.4339 865.348 63.2675 850.613L62.7374 848.756L61.9376 845.988L61.4447 844.264C57.9572 831.783 56.8319 824.109 56.8319 809.407C56.8319 794.722 57.9572 787.047 61.4447 774.566L61.9376 772.843L62.7374 770.075L63.2675 768.202C67.4339 753.483 68.9219 743.952 68.9219 726.532C68.9219 709.128 67.4339 699.598 63.2675 684.862L62.7374 683.006L61.9376 680.238L61.4447 678.514C57.9572 666.033 56.8319 658.359 56.8319 643.657C56.8319 628.972 57.9572 621.297 61.4447 608.816L61.9376 607.093L62.7374 604.325L63.2675 602.452C67.4339 587.733 68.9219 578.202 68.9219 560.782C68.9219 543.378 67.4339 533.848 63.2675 519.112L62.7374 517.256L61.9376 514.488L61.4447 512.764C57.9572 500.283 56.8319 492.609 56.8319 477.907C56.8319 463.222 57.9572 455.547 61.4447 443.066L61.9376 441.343L62.7374 438.575L63.2675 436.702C67.4339 421.983 68.9219 412.452 68.9219 395.032C68.9219 377.628 67.4339 368.098 63.2675 353.362L62.7374 351.506L61.9376 348.738L61.4447 347.014C57.9572 334.533 56.8319 326.859 56.8319 312.157C56.8319 297.472 57.9572 289.797 61.4447 277.316L61.9376 275.593L62.7374 272.825L63.2675 270.952C67.4339 256.233 68.9219 246.702 68.9219 229.282C68.9219 211.878 67.4339 202.348 63.2675 187.612L62.7374 185.756L61.9376 182.988L61.4447 181.264C57.9572 168.783 56.8319 161.109 56.8319 146.407C56.8319 131.722 57.9572 124.047 61.4447 111.566L61.9376 109.843L62.7374 107.075L63.2675 105.202C67.4339 90.483 68.9219 80.9524 68.9219 63.532C68.9219 46.1283 67.4339 36.5977 63.2675 21.8624L62.7374 20.0061L61.9376 17.238L61.4447 15.5143C57.9572 3.03333 56.8319 -4.64099 56.8319 -19.343C56.8319 -34.0284 57.9572 -41.7026 61.4447 -54.1836L61.9376 -55.9075L62.7374 -58.6754L63.2675 -60.5483C67.4339 -75.267 68.9219 -84.7976 68.9219 -102.218C68.9219 -119.622 67.4339 -129.152 63.2675 -143.888L62.7374 -145.744L61.9376 -148.512L61.4447 -150.236C57.9572 -162.717 56.8319 -170.391 56.8319 -185.093C56.8319 -199.778 57.9572 -207.453 61.4447 -219.934L61.9376 -221.657L62.7374 -224.425L63.2675 -226.298C67.4339 -241.017 68.9219 -250.548 68.9219 -267.968C68.9219 -285.372 67.4339 -294.902 63.2675 -309.638L62.7374 -311.494L61.9376 -314.262L61.4447 -315.986C57.9572 -328.467 56.8319 -336.141 56.8319 -350.843C56.8319 -365.528 57.9572 -373.203 61.4447 -385.684L61.9376 -387.407L62.7374 -390.175L63.2675 -392.048C67.4339 -406.767 68.9219 -416.298 68.9219 -433.718C68.9219 -451.122 67.4339 -460.652 63.2675 -475.388L62.7374 -477.244L61.9376 -480.012L61.4447 -481.736C57.9572 -494.217 56.8319 -501.891 56.8319 -516.593C56.8319 -531.278 57.9572 -538.953 61.4447 -551.434L61.9376 -553.157L62.7374 -555.925L63.2675 -557.798C67.4339 -572.517 68.9219 -582.048 68.9219 -599.468C68.9219 -616.872 67.4339 -626.402 63.2675 -641.137L62.7374 -642.994L61.9376 -645.762L61.4447 -647.486C57.9572 -659.967 56.8319 -667.641 56.8319 -682.343C56.8319 -697.028 57.9572 -704.703 61.4447 -717.184L61.9376 -718.907L62.7374 -721.676L63.2675 -723.548C67.4339 -738.267 68.9219 -747.798 68.9219 -765.218C68.9219 -782.622 67.4339 -792.152 63.2675 -806.887L62.7374 -808.744L61.9376 -811.512L61.4447 -813.236C57.9572 -825.717 56.8319 -833.391 56.8319 -848.093C56.8319 -862.778 57.9572 -870.453 61.4447 -882.934L61.9376 -884.657L62.7374 -887.426L63.2675 -889.298C67.4339 -904.017 68.9219 -913.548 68.9219 -930.968C68.9219 -948.372 67.4339 -957.902 63.2675 -972.637L62.7374 -974.494L61.9376 -977.262L61.4447 -978.986C57.9572 -991.467 56.8319 -999.141 56.8319 -1013.84C56.8319 -1028.53 57.9572 -1036.2 61.4447 -1048.68L61.9376 -1050.41L62.7374 -1053.18L63.2675 -1055.05C67.4339 -1069.77 68.9219 -1079.3 68.9219 -1096.72Z" fill="#34BAFF"/>
<path d="M67.607 371.775C65.9325 364.742 63.5344 359.097 60.9518 361.05C58.3692 363.003 58.7575 370.168 60.4319 377.201C62.1063 384.235 68.3066 399.467 69.8051 398.375C71.3035 397.284 69.2814 378.808 67.607 371.775Z" fill="#34B9FF"/>
</g>
<g opacity="0.4">
<path d="M104.716 -1226.52C104.716 -1257.56 108.036 -1288.52 114.653 -1319.38L115.005 -1321L120.436 -1314.28C114.026 -1284.91 110.836 -1255.68 110.836 -1226.52C110.836 -1210.36 111.761 -1201.92 114.63 -1188.19L115.035 -1186.3L115.693 -1183.26L116.129 -1181.21C119.557 -1165.01 120.781 -1154.53 120.781 -1135.4C120.781 -1116.24 119.557 -1105.76 116.129 -1089.58L115.693 -1087.52L115.035 -1084.48L114.63 -1082.58C111.83 -1069.17 110.881 -1060.8 110.836 -1045.35V-1044.27C110.836 -1028.11 111.761 -1019.67 114.63 -1005.94L115.035 -1004.05L115.693 -1001.01L116.129 -998.964C119.557 -982.762 120.781 -972.283 120.781 -953.147C120.781 -933.992 119.557 -923.513 116.129 -907.329L115.693 -905.27L115.035 -902.226L114.63 -900.331C111.83 -886.917 110.881 -878.552 110.836 -863.097V-862.022C110.836 -845.856 111.761 -837.418 114.63 -823.694L115.035 -821.799L115.693 -818.756L116.129 -816.714C119.557 -800.512 120.781 -790.033 120.781 -770.897C120.781 -751.742 119.557 -741.263 116.129 -725.079L115.693 -723.02L115.035 -719.976L114.63 -718.081C111.83 -704.667 110.881 -696.302 110.836 -680.847V-679.772C110.836 -663.606 111.761 -655.168 114.63 -641.444L115.035 -639.549L115.693 -636.505L116.129 -634.464C119.557 -618.262 120.781 -607.783 120.781 -588.647C120.781 -569.492 119.557 -559.013 116.129 -542.829L115.693 -540.77L115.035 -537.726L114.63 -535.831C111.83 -522.417 110.881 -514.052 110.836 -498.597V-497.522C110.836 -481.356 111.761 -472.918 114.63 -459.194L115.035 -457.299L115.693 -454.255L116.129 -452.214C119.557 -436.012 120.781 -425.533 120.781 -406.397C120.781 -387.242 119.557 -376.763 116.129 -360.579L115.693 -358.52L115.035 -355.476L114.63 -353.581C111.83 -340.167 110.881 -331.802 110.836 -316.347V-315.272C110.836 -299.106 111.761 -290.668 114.63 -276.944L115.035 -275.049L115.693 -272.005L116.129 -269.964C119.557 -253.762 120.781 -243.283 120.781 -224.147C120.781 -204.992 119.557 -194.513 116.129 -178.329L115.693 -176.27L115.035 -173.226L114.63 -171.331C111.83 -157.917 110.881 -149.552 110.836 -134.097V-133.022C110.836 -116.856 111.761 -108.418 114.63 -94.6943L115.035 -92.799L115.693 -89.7555L116.129 -87.7142C119.557 -71.5122 120.781 -61.0328 120.781 -41.8966C120.781 -22.7421 119.557 -12.2627 116.129 3.92114L115.693 5.9823L115.035 9.02405L114.63 10.9194C111.83 24.333 110.881 32.6984 110.836 48.1532V49.2284C110.836 65.394 111.761 73.8323 114.63 87.5557L115.035 89.451L115.693 92.4945L116.129 94.5358C119.557 110.738 120.781 121.217 120.781 140.353C120.781 159.508 119.557 169.987 116.129 186.171L115.693 188.231L115.035 191.274L114.63 193.169C111.83 206.583 110.881 214.948 110.836 230.403V231.478C110.836 247.644 111.761 256.082 114.63 269.806L115.035 271.701L115.693 274.745L116.129 276.786C119.557 292.988 120.781 303.467 120.781 322.603C120.781 341.758 119.557 352.237 116.129 368.421L115.693 370.481L115.035 373.524L114.63 375.419C111.83 388.833 110.881 397.198 110.836 412.653V413.728C110.836 429.894 111.761 438.332 114.63 452.056L115.035 453.951L115.693 456.995L116.129 459.036C119.557 475.238 120.781 485.717 120.781 504.853C120.781 524.008 119.557 534.487 116.129 550.671L115.693 552.731L115.035 555.774L114.63 557.669C111.83 571.083 110.881 579.448 110.836 594.903V595.978C110.836 612.144 111.761 620.582 114.63 634.306L115.035 636.201L115.693 639.245L116.129 641.286C119.557 657.488 120.781 667.967 120.781 687.103C120.781 706.258 119.557 716.737 116.129 732.921L115.693 734.981L115.035 738.024L114.63 739.92C111.83 753.333 110.881 761.698 110.836 777.153V778.228C110.836 794.394 111.761 802.832 114.63 816.556L115.035 818.451L115.693 821.495L116.129 823.536C119.557 839.738 120.781 850.217 120.781 869.353C120.781 888.508 119.557 898.987 116.129 915.171L115.693 917.231L115.035 920.274L114.63 922.17C111.83 935.583 110.881 943.948 110.836 959.403V960.478C110.836 976.644 111.761 985.082 114.63 998.806L115.035 1000.7L115.693 1003.74L116.129 1005.79C119.557 1021.99 120.781 1032.47 120.781 1051.6C120.781 1070.76 119.557 1081.24 116.129 1097.42L115.693 1099.48L115.035 1102.52L114.63 1104.42C111.83 1117.83 110.881 1126.2 110.836 1141.65V1142.73C110.836 1158.89 111.761 1167.33 114.63 1181.06L115.035 1182.95L115.693 1185.99L116.129 1188.04C119.557 1204.24 120.781 1214.72 120.781 1233.85C120.781 1253.01 119.557 1263.49 116.129 1279.67L115.693 1281.73L115.035 1284.77L114.63 1286.67C111.83 1300.08 110.881 1308.45 110.836 1323.9V1324.98C110.836 1341.14 111.761 1349.58 114.63 1363.31L115.035 1365.2L115.693 1368.24L116.129 1370.29C119.557 1386.49 120.781 1396.97 120.781 1416.1C120.781 1435.26 119.557 1445.74 116.129 1461.92L115.693 1463.98L115.035 1467.02L114.63 1468.92C111.761 1482.64 110.836 1491.08 110.836 1507.23C110.836 1535.88 113.911 1564.58 120.092 1593.43L120.436 1595L115.005 1601.73C108.158 1570.34 104.716 1538.81 104.716 1507.23C104.716 1488.09 105.94 1477.61 109.367 1461.41L109.803 1459.37L110.461 1456.33L110.866 1454.43C113.735 1440.71 114.661 1432.27 114.661 1416.1C114.661 1399.96 113.735 1391.52 110.866 1377.79L110.461 1375.9L109.803 1372.86L109.367 1370.8C105.94 1354.61 104.716 1344.13 104.716 1324.98C104.716 1305.84 105.94 1295.36 109.367 1279.16L109.803 1277.12L110.461 1274.08L110.866 1272.18C113.735 1258.46 114.661 1250.02 114.661 1233.85C114.661 1217.71 113.735 1209.27 110.866 1195.54L110.461 1193.65L109.803 1190.61L109.367 1188.55C105.94 1172.36 104.716 1161.88 104.716 1142.73C104.716 1123.59 105.94 1113.11 109.367 1096.91L109.803 1094.87L110.461 1091.83L110.866 1089.93C113.735 1076.21 114.661 1067.77 114.661 1051.6C114.661 1035.46 113.735 1027.02 110.866 1013.29L110.461 1011.4L109.803 1008.36L109.367 1006.3C105.94 990.112 104.716 979.633 104.716 960.478C104.716 941.342 105.94 930.863 109.367 914.661L109.803 912.62L110.461 909.576L110.866 907.681C113.735 893.957 114.661 885.519 114.661 869.353C114.661 853.206 113.735 844.768 110.866 831.045L110.461 829.149L109.803 826.106L109.367 824.046C105.94 807.862 104.716 797.383 104.716 778.228C104.716 759.092 105.94 748.613 109.367 732.411L109.803 730.37L110.461 727.326L110.866 725.431C113.735 711.707 114.661 703.269 114.661 687.103C114.661 670.956 113.735 662.518 110.866 648.794L110.461 646.899L109.803 643.856L109.367 641.796C105.94 625.612 104.716 615.133 104.716 595.978C104.716 576.842 105.94 566.363 109.367 550.161L109.803 548.12L110.461 545.076L110.866 543.181C113.735 529.457 114.661 521.019 114.661 504.853C114.661 488.706 113.735 480.268 110.866 466.544L110.461 464.649L109.803 461.606L109.367 459.546C105.94 443.362 104.716 432.883 104.716 413.728C104.716 394.592 105.94 384.113 109.367 367.911L109.803 365.87L110.461 362.826L110.866 360.931C113.735 347.207 114.661 338.769 114.661 322.603C114.661 306.456 113.735 298.018 110.866 284.294L110.461 282.399L109.803 279.356L109.367 277.296C105.94 261.112 104.716 250.633 104.716 231.478C104.716 212.342 105.94 201.863 109.367 185.661L109.803 183.62L110.461 180.576L110.866 178.681C113.735 164.957 114.661 156.519 114.661 140.353C114.661 124.206 113.735 115.768 110.866 102.044L110.461 100.149L109.803 97.1056L109.367 95.0461C105.94 78.8623 104.716 68.3829 104.716 49.2284C104.716 30.0922 105.94 19.6128 109.367 3.41077L109.803 1.36951L110.461 -1.67395L110.866 -3.56934C113.735 -17.2927 114.661 -25.731 114.661 -41.8966C114.661 -58.0439 113.735 -66.4822 110.866 -80.2056L110.461 -82.101L109.803 -85.1445L109.367 -87.2039C105.94 -103.388 104.716 -113.867 104.716 -133.022C104.716 -152.158 105.94 -162.637 109.367 -178.839L109.803 -180.88L110.461 -183.924L110.866 -185.819C113.735 -199.543 114.661 -207.981 114.661 -224.147C114.661 -240.294 113.735 -248.732 110.866 -262.456L110.461 -264.351L109.803 -267.395L109.367 -269.454C105.94 -285.638 104.716 -296.117 104.716 -315.272C104.716 -334.408 105.94 -344.887 109.367 -361.089L109.803 -363.13L110.461 -366.174L110.866 -368.069C113.735 -381.793 114.661 -390.231 114.661 -406.397C114.661 -422.544 113.735 -430.982 110.866 -444.706L110.461 -446.601L109.803 -449.645L109.367 -451.704C105.94 -467.888 104.716 -478.367 104.716 -497.522C104.716 -516.658 105.94 -527.137 109.367 -543.339L109.803 -545.38L110.461 -548.424L110.866 -550.319C113.735 -564.043 114.661 -572.481 114.661 -588.647C114.661 -604.794 113.735 -613.232 110.866 -626.956L110.461 -628.851L109.803 -631.895L109.367 -633.954C105.94 -650.138 104.716 -660.617 104.716 -679.772C104.716 -698.908 105.94 -709.387 109.367 -725.589L109.803 -727.63L110.461 -730.674L110.866 -732.569C113.735 -746.293 114.661 -754.731 114.661 -770.897C114.661 -787.044 113.735 -795.482 110.866 -809.206L110.461 -811.101L109.803 -814.145L109.367 -816.204C105.94 -832.388 104.716 -842.867 104.716 -862.022C104.716 -881.158 105.94 -891.637 109.367 -907.839L109.803 -909.881L110.461 -912.924L110.866 -914.819C113.735 -928.543 114.661 -936.981 114.661 -953.147C114.661 -969.294 113.735 -977.732 110.866 -991.456L110.461 -993.351L109.803 -996.395L109.367 -998.454C105.94 -1014.64 104.716 -1025.12 104.716 -1044.27C104.716 -1063.41 105.94 -1073.89 109.367 -1090.09L109.803 -1092.13L110.461 -1095.17L110.866 -1097.07C113.735 -1110.79 114.661 -1119.23 114.661 -1135.4C114.661 -1151.54 113.735 -1159.98 110.866 -1173.71L110.461 -1175.6L109.803 -1178.64L109.367 -1180.7C105.94 -1196.89 104.716 -1207.37 104.716 -1226.52Z" fill="#34BAFF"/>
<path d="M104.985 398.152C105.955 390.076 107.595 383.34 109.813 384.853C112.032 386.366 112.119 394.278 111.149 402.355C110.179 410.431 105.976 428.539 104.691 427.707C103.406 426.875 104.015 406.228 104.985 398.152Z" fill="#34B9FF"/>
</g>
<g opacity="0.4">
<path d="M111.398 -962.262C111.398 -990.489 107.362 -1018.65 99.3174 -1046.71L98.8896 -1048.19L92.2866 -1042.07C100.08 -1015.37 103.958 -988.782 103.958 -962.262C103.958 -947.56 102.833 -939.886 99.3453 -927.405L98.8524 -925.681L98.0526 -922.913L97.5225 -921.057C93.3561 -906.322 91.8681 -896.791 91.8681 -879.387C91.8681 -861.967 93.3561 -852.436 97.5225 -837.718L98.0526 -835.845L98.8524 -833.076L99.3453 -831.353C102.749 -819.154 103.902 -811.546 103.958 -797.49V-796.512C103.958 -781.81 102.833 -774.136 99.3453 -761.655L98.8524 -759.931L98.0526 -757.163L97.5225 -755.307C93.3561 -740.572 91.8681 -731.041 91.8681 -713.637C91.8681 -696.217 93.3561 -686.686 97.5225 -671.968L98.0526 -670.095L98.8524 -667.326L99.3453 -665.603C102.749 -653.404 103.902 -645.796 103.958 -631.74V-630.762C103.958 -616.06 102.833 -608.386 99.3453 -595.905L98.8524 -594.181L98.0526 -591.413L97.5225 -589.557C93.3561 -574.822 91.8681 -565.291 91.8681 -547.887C91.8681 -530.467 93.3561 -520.936 97.5225 -506.218L98.0526 -504.345L98.8524 -501.576L99.3453 -499.853C102.749 -487.654 103.902 -480.046 103.958 -465.99V-465.012C103.958 -450.31 102.833 -442.636 99.3453 -430.155L98.8524 -428.431L98.0526 -425.663L97.5225 -423.807C93.3561 -409.072 91.8681 -399.541 91.8681 -382.137C91.8681 -364.717 93.3561 -355.186 97.5225 -340.468L98.0526 -338.595L98.8524 -335.827L99.3453 -334.103C102.749 -321.904 103.902 -314.296 103.958 -300.24V-299.262C103.958 -284.56 102.833 -276.886 99.3453 -264.405L98.8524 -262.681L98.0526 -259.913L97.5225 -258.057C93.3561 -243.322 91.8681 -233.791 91.8681 -216.387C91.8681 -198.967 93.3561 -189.436 97.5225 -174.718L98.0526 -172.845L98.8524 -170.077L99.3453 -168.353C102.749 -156.154 103.902 -148.546 103.958 -134.49V-133.512C103.958 -118.81 102.833 -111.136 99.3453 -98.6549L98.8524 -96.9313L98.0526 -94.1631L97.5225 -92.3068C93.3561 -77.5715 91.8681 -68.0409 91.8681 -50.6372C91.8681 -33.2168 93.3561 -23.6862 97.5225 -8.96753L98.0526 -7.0946L98.8524 -4.32666L99.3453 -2.60291C102.749 9.59631 103.902 17.2043 103.958 31.26V32.2378C103.958 46.9398 102.833 54.6141 99.3453 67.0951L98.8524 68.8188L98.0526 71.5869L97.5225 73.4432C93.3561 88.1785 91.8681 97.7091 91.8681 115.113C91.8681 132.533 93.3561 142.064 97.5225 156.782L98.0526 158.657L98.8524 161.423L99.3453 163.147C102.749 175.346 103.902 182.954 103.958 197.01V197.988C103.958 212.69 102.833 220.364 99.3453 232.845L98.8524 234.569L98.0526 237.337L97.5225 239.193C93.3561 253.928 91.8681 263.459 91.8681 280.863C91.8681 298.283 93.3561 307.814 97.5225 322.532L98.0526 324.405L98.8524 327.173L99.3453 328.897C102.749 341.096 103.902 348.704 103.958 362.76V363.738C103.958 378.44 102.833 386.114 99.3453 398.595L98.8524 400.319L98.0526 403.087L97.5225 404.943C93.3561 419.678 91.8681 429.209 91.8681 446.613C91.8681 464.033 93.3561 473.564 97.5225 488.282L98.0526 490.155L98.8524 492.923L99.3453 494.647C102.749 506.846 103.902 514.454 103.958 528.51V529.488C103.958 544.19 102.833 551.864 99.3453 564.345L98.8524 566.069L98.0526 568.837L97.5225 570.693C93.3561 585.428 91.8681 594.959 91.8681 612.363C91.8681 629.783 93.3561 639.314 97.5225 654.032L98.0526 655.905L98.8524 658.673L99.3453 660.397C102.749 672.596 103.902 680.204 103.958 694.26V695.238C103.958 709.94 102.833 717.614 99.3453 730.095L98.8524 731.819L98.0526 734.587L97.5225 736.443C93.3561 751.178 91.8681 760.709 91.8681 778.113C91.8681 795.533 93.3561 805.064 97.5225 819.782L98.0526 821.655L98.8524 824.423L99.3453 826.147C102.749 838.346 103.902 845.954 103.958 860.01V860.988C103.958 875.69 102.833 883.364 99.3453 895.845L98.8524 897.569L98.0526 900.337L97.5225 902.193C93.3561 916.928 91.8681 926.459 91.8681 943.863C91.8681 961.283 93.3561 970.814 97.5225 985.532L98.0526 987.405L98.8524 990.173L99.3453 991.897C102.749 1004.1 103.902 1011.7 103.958 1025.76V1026.74C103.958 1041.44 102.833 1049.11 99.3453 1061.6L98.8524 1063.32L98.0526 1066.09L97.5225 1067.94C93.3561 1082.68 91.8681 1092.21 91.8681 1109.61C91.8681 1127.03 93.3561 1136.56 97.5225 1151.28L98.0526 1153.16L98.8524 1155.92L99.3453 1157.65C102.749 1169.85 103.902 1177.45 103.958 1191.51V1192.49C103.958 1207.19 102.833 1214.86 99.3453 1227.35L98.8524 1229.07L98.0526 1231.84L97.5225 1233.69C93.3561 1248.43 91.8681 1257.96 91.8681 1275.36C91.8681 1292.78 93.3561 1302.31 97.5225 1317.03L98.0526 1318.91L98.8524 1321.67L99.3453 1323.4C102.749 1335.6 103.902 1343.2 103.958 1357.26V1358.24C103.958 1372.94 102.833 1380.61 99.3453 1393.1L98.8524 1394.82L98.0526 1397.59L97.5225 1399.44C93.3561 1414.18 91.8681 1423.71 91.8681 1441.11C91.8681 1458.53 93.3561 1468.06 97.5225 1482.78L98.0526 1484.66L98.8524 1487.42L99.3453 1489.15C102.833 1501.63 103.958 1509.3 103.958 1523.99C103.958 1550.04 100.219 1576.15 92.7051 1602.39L92.2866 1603.81L98.8896 1609.93C107.213 1581.39 111.398 1552.71 111.398 1523.99C111.398 1506.58 109.91 1497.05 105.744 1482.32L105.214 1480.46L104.414 1477.69L103.921 1475.97C100.433 1463.49 99.3081 1455.81 99.3081 1441.11C99.3081 1426.43 100.433 1418.75 103.921 1406.27L104.414 1404.55L105.214 1401.78L105.744 1399.91C109.91 1385.19 111.398 1375.66 111.398 1358.24C111.398 1340.83 109.91 1331.3 105.744 1316.57L105.214 1314.71L104.414 1311.94L103.921 1310.22C100.433 1297.74 99.3081 1290.06 99.3081 1275.36C99.3081 1260.68 100.433 1253 103.921 1240.52L104.414 1238.8L105.214 1236.03L105.744 1234.16C109.91 1219.44 111.398 1209.91 111.398 1192.49C111.398 1175.08 109.91 1165.55 105.744 1150.82L105.214 1148.96L104.414 1146.19L103.921 1144.47C100.433 1131.99 99.3081 1124.31 99.3081 1109.61C99.3081 1094.93 100.433 1087.25 103.921 1074.77L104.414 1073.05L105.214 1070.28L105.744 1068.41C109.91 1053.69 111.398 1044.16 111.398 1026.74C111.398 1009.33 109.91 999.803 105.744 985.068L105.214 983.212L104.414 980.444L103.921 978.72C100.433 966.239 99.3081 958.565 99.3081 943.863C99.3081 929.177 100.433 921.503 103.921 909.022L104.414 907.298L105.214 904.53L105.744 902.657C109.91 887.939 111.398 878.408 111.398 860.988C111.398 843.584 109.91 834.053 105.744 819.318L105.214 817.462L104.414 814.694L103.921 812.97C100.433 800.489 99.3081 792.815 99.3081 778.113C99.3081 763.427 100.433 755.753 103.921 743.272L104.414 741.548L105.214 738.78L105.744 736.907C109.91 722.189 111.398 712.658 111.398 695.238C111.398 677.834 109.91 668.303 105.744 653.568L105.214 651.712L104.414 648.944L103.921 647.22C100.433 634.739 99.3081 627.065 99.3081 612.363C99.3081 597.677 100.433 590.003 103.921 577.522L104.414 575.798L105.214 573.03L105.744 571.157C109.91 556.439 111.398 546.908 111.398 529.488C111.398 512.084 109.91 502.553 105.744 487.818L105.214 485.962L104.414 483.194L103.921 481.47C100.433 468.989 99.3081 461.315 99.3081 446.613C99.3081 431.927 100.433 424.253 103.921 411.772L104.414 410.048L105.214 407.28L105.744 405.407C109.91 390.689 111.398 381.158 111.398 363.738C111.398 346.334 109.91 336.803 105.744 322.068L105.214 320.212L104.414 317.444L103.921 315.72C100.433 303.239 99.3081 295.565 99.3081 280.863C99.3081 266.177 100.433 258.503 103.921 246.022L104.414 244.298L105.214 241.53L105.744 239.657C109.91 224.939 111.398 215.408 111.398 197.988C111.398 180.584 109.91 171.053 105.744 156.318L105.214 154.462L104.414 151.694L103.921 149.97C100.433 137.489 99.3081 129.815 99.3081 115.113C99.3081 100.427 100.433 92.7532 103.921 80.2722L104.414 78.5483L105.214 75.7804L105.744 73.9075C109.91 59.1888 111.398 49.6582 111.398 32.2378C111.398 14.8341 109.91 5.30347 105.744 -9.43176L105.214 -11.2881L104.414 -14.0562L103.921 -15.7799C100.433 -28.2609 99.3081 -35.9352 99.3081 -50.6372C99.3081 -65.3226 100.433 -72.9968 103.921 -85.4779L104.414 -87.2017L105.214 -89.9696L105.744 -91.8427C109.91 -106.561 111.398 -116.092 111.398 -133.512C111.398 -150.916 109.91 -160.447 105.744 -175.182L105.214 -177.038L104.414 -179.806L103.921 -181.53C100.433 -194.011 99.3081 -201.685 99.3081 -216.387C99.3081 -231.073 100.433 -238.747 103.921 -251.228L104.414 -252.952L105.214 -255.72L105.744 -257.593C109.91 -272.311 111.398 -281.842 111.398 -299.262C111.398 -316.666 109.91 -326.197 105.744 -340.932L105.214 -342.788L104.414 -345.556L103.921 -347.28C100.433 -359.761 99.3081 -367.435 99.3081 -382.137C99.3081 -396.823 100.433 -404.497 103.921 -416.978L104.414 -418.702L105.214 -421.47L105.744 -423.343C109.91 -438.061 111.398 -447.592 111.398 -465.012C111.398 -482.416 109.91 -491.947 105.744 -506.682L105.214 -508.538L104.414 -511.306L103.921 -513.03C100.433 -525.511 99.3081 -533.185 99.3081 -547.887C99.3081 -562.573 100.433 -570.247 103.921 -582.728L104.414 -584.451L105.214 -587.22L105.744 -589.093C109.91 -603.811 111.398 -613.342 111.398 -630.762C111.398 -648.166 109.91 -657.697 105.744 -672.432L105.214 -674.288L104.414 -677.056L103.921 -678.78C100.433 -691.261 99.3081 -698.935 99.3081 -713.637C99.3081 -728.323 100.433 -735.997 103.921 -748.478L104.414 -750.201L105.214 -752.97L105.744 -754.843C109.91 -769.561 111.398 -779.092 111.398 -796.512C111.398 -813.916 109.91 -823.447 105.744 -838.182L105.214 -840.038L104.414 -842.806L103.921 -844.53C100.433 -857.011 99.3081 -864.685 99.3081 -879.387C99.3081 -894.073 100.433 -901.747 103.921 -914.228L104.414 -915.951L105.214 -918.72L105.744 -920.593C109.91 -935.311 111.398 -944.842 111.398 -962.262Z" fill="#34BAFF"/>
<path d="M110.462 382.645C111.835 375.407 112.15 368.349 109.492 366.747C106.835 365.146 104.452 370.958 103.079 378.196C101.706 385.433 100.655 404.159 102.181 405.119C103.708 406.079 109.089 389.883 110.462 382.645Z" fill="#34B9FF"/>
</g>
<g opacity="0.4">
<path d="M71.1967 -1171.32C71.1967 -1203.89 74.5168 -1236.38 81.134 -1268.76L81.4859 -1270.46L86.9174 -1263.4C80.5067 -1232.59 77.3167 -1201.92 77.3167 -1171.32C77.3167 -1154.35 78.2423 -1145.5 81.1111 -1131.1L81.5165 -1129.11L82.1744 -1125.91L82.6105 -1123.77C86.0377 -1106.77 87.2617 -1095.77 87.2617 -1075.69C87.2617 -1055.59 86.0377 -1044.59 82.6105 -1027.61L82.1744 -1025.45L81.5165 -1022.26L81.1111 -1020.27C78.3112 -1006.19 77.3626 -997.414 77.3167 -981.196V-980.067C77.3167 -963.103 78.2423 -954.249 81.1111 -939.847L81.5165 -937.858L82.1744 -934.665L82.6105 -932.522C86.0377 -915.52 87.2617 -904.523 87.2617 -884.442C87.2617 -864.342 86.0377 -853.345 82.6105 -836.362L82.1744 -834.201L81.5165 -831.007L81.1111 -829.018C78.3112 -814.942 77.3626 -806.164 77.3167 -789.946V-788.817C77.3167 -771.853 78.2423 -762.999 81.1111 -748.597L81.5165 -746.608L82.1744 -743.415L82.6105 -741.272C86.0377 -724.27 87.2617 -713.273 87.2617 -693.192C87.2617 -673.092 86.0377 -662.095 82.6105 -645.112L82.1744 -642.951L81.5165 -639.757L81.1111 -637.768C78.3112 -623.692 77.3626 -614.914 77.3167 -598.696V-597.567C77.3167 -580.603 78.2423 -571.749 81.1111 -557.347L81.5165 -555.358L82.1744 -552.165L82.6105 -550.022C86.0377 -533.021 87.2617 -522.023 87.2617 -501.942C87.2617 -481.842 86.0377 -470.845 82.6105 -453.862L82.1744 -451.701L81.5165 -448.507L81.1111 -446.518C78.3112 -432.442 77.3626 -423.664 77.3167 -407.446V-406.317C77.3167 -389.354 78.2423 -380.499 81.1111 -366.097L81.5165 -364.108L82.1744 -360.915L82.6105 -358.772C86.0377 -341.771 87.2617 -330.773 87.2617 -310.692C87.2617 -290.592 86.0377 -279.595 82.6105 -262.612L82.1744 -260.451L81.5165 -257.257L81.1111 -255.268C78.3112 -241.192 77.3626 -232.414 77.3167 -216.196V-215.067C77.3167 -198.103 78.2423 -189.248 81.1111 -174.847L81.5165 -172.859L82.1744 -169.665L82.6105 -167.523C86.0377 -150.52 87.2617 -139.524 87.2617 -119.442C87.2617 -99.3419 86.0377 -88.345 82.6105 -71.3621L82.1744 -69.2009L81.5165 -66.0071L81.1111 -64.0181C78.3112 -49.942 77.3626 -41.1636 77.3167 -24.9456V-23.8173C77.3167 -6.85339 78.2423 2.00146 81.1111 16.4026L81.5165 18.3916L82.1744 21.5854L82.6105 23.7274C86.0377 40.7296 87.2617 51.7264 87.2617 71.8077C87.2617 91.9081 86.0377 102.905 82.6105 119.888L82.1744 122.051L81.5165 125.243L81.1111 127.232C78.3112 141.308 77.3626 150.086 77.3167 166.304V167.433C77.3167 184.397 78.2423 193.251 81.1111 207.653L81.5165 209.642L82.1744 212.835L82.6105 214.977C86.0377 231.979 87.2617 242.976 87.2617 263.058C87.2617 283.158 86.0377 294.155 82.6105 311.138L82.1744 313.299L81.5165 316.493L81.1111 318.482C78.3112 332.558 77.3626 341.336 77.3167 357.554V358.683C77.3167 375.647 78.2423 384.501 81.1111 398.903L81.5165 400.892L82.1744 404.085L82.6105 406.227C86.0377 423.229 87.2617 434.226 87.2617 454.308C87.2617 474.408 86.0377 485.405 82.6105 502.388L82.1744 504.549L81.5165 507.743L81.1111 509.732C78.3112 523.808 77.3626 532.586 77.3167 548.804V549.933C77.3167 566.897 78.2423 575.751 81.1111 590.153L81.5165 592.142L82.1744 595.335L82.6105 597.477C86.0377 614.479 87.2617 625.476 87.2617 645.558C87.2617 665.658 86.0377 676.655 82.6105 693.638L82.1744 695.799L81.5165 698.993L81.1111 700.982C78.3112 715.058 77.3626 723.836 77.3167 740.054V741.183C77.3167 758.146 78.2423 767.001 81.1111 781.403L81.5165 783.392L82.1744 786.585L82.6105 788.727C86.0377 805.729 87.2617 816.726 87.2617 836.808C87.2617 856.908 86.0377 867.905 82.6105 884.888L82.1744 887.049L81.5165 890.243L81.1111 892.232C78.3112 906.308 77.3626 915.086 77.3167 931.304V932.433C77.3167 949.397 78.2423 958.251 81.1111 972.653L81.5165 974.642L82.1744 977.835L82.6105 979.977C86.0377 996.98 87.2617 1007.98 87.2617 1028.06C87.2617 1048.16 86.0377 1059.15 82.6105 1076.14L82.1744 1078.3L81.5165 1081.49L81.1111 1083.48C78.3112 1097.56 77.3626 1106.34 77.3167 1122.55V1123.68C77.3167 1140.65 78.2423 1149.5 81.1111 1163.9L81.5165 1165.89L82.1744 1169.09L82.6105 1171.23C86.0377 1188.23 87.2617 1199.23 87.2617 1219.31C87.2617 1239.41 86.0377 1250.4 82.6105 1267.39L82.1744 1269.55L81.5165 1272.74L81.1111 1274.73C78.3112 1288.81 77.3626 1297.59 77.3167 1313.8V1314.93C77.3167 1331.9 78.2423 1340.75 81.1111 1355.15L81.5165 1357.14L82.1744 1360.34L82.6105 1362.48C86.0377 1379.48 87.2617 1390.48 87.2617 1410.56C87.2617 1430.66 86.0377 1441.65 82.6105 1458.64L82.1744 1460.8L81.5165 1463.99L81.1111 1465.98C78.3112 1480.06 77.3626 1488.84 77.3167 1505.05V1506.18C77.3167 1523.15 78.2423 1532 81.1111 1546.4L81.5165 1548.39L82.1744 1551.59L82.6105 1553.73C86.0377 1570.73 87.2617 1581.73 87.2617 1601.81C87.2617 1621.91 86.0377 1632.9 82.6105 1649.89L82.1744 1652.05L81.5165 1655.24L81.1111 1657.23C78.2423 1671.63 77.3167 1680.49 77.3167 1697.43C77.3167 1727.5 80.392 1757.62 86.5732 1787.89L86.9174 1789.54L81.4859 1796.6C74.6392 1763.66 71.1967 1730.58 71.1967 1697.43C71.1967 1677.35 72.4207 1666.35 75.8479 1649.35L76.2839 1647.21L76.9418 1644.02L77.3473 1642.03C80.216 1627.63 81.1417 1618.77 81.1417 1601.81C81.1417 1584.86 80.216 1576.01 77.3473 1561.61L76.9418 1559.62L76.2839 1556.42L75.8479 1554.26C72.4207 1537.28 71.1967 1526.28 71.1967 1506.18C71.1967 1486.1 72.4207 1475.1 75.8479 1458.1L76.2839 1455.96L76.9418 1452.77L77.3473 1450.78C80.216 1436.38 81.1417 1427.52 81.1417 1410.56C81.1417 1393.61 80.216 1384.76 77.3473 1370.36L76.9418 1368.37L76.2839 1365.17L75.8479 1363.01C72.4207 1346.03 71.1967 1335.03 71.1967 1314.93C71.1967 1294.85 72.4207 1283.85 75.8479 1266.85L76.2839 1264.71L76.9418 1261.52L77.3473 1259.53C80.216 1245.13 81.1417 1236.27 81.1417 1219.31C81.1417 1202.36 80.216 1193.51 77.3473 1179.11L76.9418 1177.12L76.2839 1173.92L75.8479 1171.76C72.4207 1154.78 71.1967 1143.78 71.1967 1123.68C71.1967 1103.6 72.4207 1092.6 75.8479 1075.6L76.2839 1073.46L76.9418 1070.27L77.3473 1068.28C80.216 1053.88 81.1417 1045.02 81.1417 1028.06C81.1417 1011.11 80.216 1002.26 77.3473 987.857L76.9418 985.868L76.2839 982.674L75.8479 980.513C72.4207 963.53 71.1967 952.533 71.1967 932.433C71.1967 912.351 72.4207 901.355 75.8479 884.352L76.2839 882.21L76.9418 879.017L77.3473 877.028C80.216 862.626 81.1417 853.772 81.1417 836.808C81.1417 819.863 80.216 811.008 77.3473 796.607L76.9418 794.618L76.2839 791.424L75.8479 789.263C72.4207 772.28 71.1967 761.283 71.1967 741.183C71.1967 721.101 72.4207 710.104 75.8479 693.102L76.2839 690.96L76.9418 687.767L77.3473 685.778C80.216 671.376 81.1417 662.522 81.1417 645.558C81.1417 628.613 80.216 619.758 77.3473 605.357L76.9418 603.368L76.2839 600.174L75.8479 598.013C72.4207 581.03 71.1967 570.033 71.1967 549.933C71.1967 529.851 72.4207 518.854 75.8479 501.852L76.2839 499.71L76.9418 496.517L77.3473 494.528C80.216 480.126 81.1417 471.272 81.1417 454.308C81.1417 437.363 80.216 428.508 77.3473 414.107L76.9418 412.118L76.2839 408.924L75.8479 406.763C72.4207 389.78 71.1967 378.783 71.1967 358.683C71.1967 338.601 72.4207 327.604 75.8479 310.602L76.2839 308.46L76.9418 305.267L77.3473 303.278C80.216 288.876 81.1417 280.022 81.1417 263.058C81.1417 246.113 80.216 237.258 77.3473 222.857L76.9418 220.868L76.2839 217.674L75.8479 215.513C72.4207 198.53 71.1967 187.533 71.1967 167.433C71.1967 147.351 72.4207 136.355 75.8479 119.352L76.2839 117.21L76.9418 114.017L77.3473 112.028C80.216 97.6265 81.1417 88.7716 81.1417 71.8077C81.1417 54.8629 80.216 46.0081 77.3473 31.6069L76.9418 29.6179L76.2839 26.4241L75.8479 24.2629C72.4207 7.28003 71.1967 -3.71692 71.1967 -23.8173C71.1967 -43.8986 72.4207 -54.8954 75.8479 -71.8976L76.2839 -74.0396L76.9418 -77.2334L77.3473 -79.2223C80.216 -93.6234 81.1417 -102.478 81.1417 -119.442C81.1417 -136.387 80.216 -145.242 77.3473 -159.643L76.9418 -161.632L76.2839 -164.826L75.8479 -166.987C72.4207 -183.97 71.1967 -194.967 71.1967 -215.067C71.1967 -235.149 72.4207 -246.146 75.8479 -263.147L76.2839 -265.29L76.9418 -268.483L77.3473 -270.472C80.216 -284.874 81.1417 -293.729 81.1417 -310.692C81.1417 -327.637 80.216 -336.492 77.3473 -350.893L76.9418 -352.882L76.2839 -356.076L75.8479 -358.237C72.4207 -375.22 71.1967 -386.217 71.1967 -406.317C71.1967 -426.398 72.4207 -437.396 75.8479 -454.397L76.2839 -456.54L76.9418 -459.733L77.3473 -461.722C80.216 -476.124 81.1417 -484.979 81.1417 -501.942C81.1417 -518.887 80.216 -527.742 77.3473 -542.143L76.9418 -544.132L76.2839 -547.326L75.8479 -549.487C72.4207 -566.47 71.1967 -577.467 71.1967 -597.567C71.1967 -617.648 72.4207 -628.646 75.8479 -645.647L76.2839 -647.79L76.9418 -650.983L77.3473 -652.972C80.216 -667.374 81.1417 -676.228 81.1417 -693.192C81.1417 -710.137 80.216 -718.992 77.3473 -733.393L76.9418 -735.382L76.2839 -738.576L75.8479 -740.737C72.4207 -757.72 71.1967 -768.717 71.1967 -788.817C71.1967 -808.898 72.4207 -819.895 75.8479 -836.897L76.2839 -839.04L76.9418 -842.233L77.3473 -844.222C80.216 -858.624 81.1417 -867.478 81.1417 -884.442C81.1417 -901.387 80.216 -910.242 77.3473 -924.643L76.9418 -926.632L76.2839 -929.826L75.8479 -931.987C72.4207 -948.97 71.1967 -959.967 71.1967 -980.067C71.1967 -1000.15 72.4207 -1011.15 75.8479 -1028.15L76.2839 -1030.29L76.9418 -1033.48L77.3473 -1035.47C80.216 -1049.87 81.1417 -1058.73 81.1417 -1075.69C81.1417 -1092.64 80.216 -1101.49 77.3473 -1115.89L76.9418 -1117.88L76.2839 -1121.08L75.8479 -1123.24C72.4207 -1140.22 71.1967 -1151.22 71.1967 -1171.32Z" fill="#34BAFF"/>
<path d="M78.5018 419.853C76.8679 412.041 76.1068 404.095 78.1519 401.422C80.1969 398.749 82.5495 404.614 84.1834 412.427C85.8172 420.239 88.0118 441.248 86.8401 442.829C85.6684 444.411 80.1356 427.665 78.5018 419.853Z" fill="#34B9FF"/>
</g>
<g opacity="0.4">
<path d="M55.2703 -1043.35C55.2703 -1071.58 51.2341 -1099.74 43.1896 -1127.8L42.7618 -1129.27L36.1588 -1123.16C43.9522 -1096.46 47.8303 -1069.87 47.8303 -1043.35C47.8303 -1028.65 46.705 -1020.97 43.2175 -1008.49L42.7246 -1006.77L41.9248 -1004L41.3947 -1002.14C37.2283 -987.409 35.7403 -977.878 35.7403 -960.475C35.7403 -943.054 37.2283 -933.524 41.3947 -918.805L41.9248 -916.932L42.7246 -914.164L43.2175 -912.44C46.6213 -900.241 47.7745 -892.633 47.8303 -878.577V-877.6C47.8303 -862.897 46.705 -855.223 43.2175 -842.742L42.7246 -841.019L41.9248 -838.25L41.3947 -836.394C37.2283 -821.659 35.7403 -812.128 35.7403 -794.725C35.7403 -777.304 37.2283 -767.774 41.3947 -753.055L41.9248 -751.182L42.7246 -748.414L43.2175 -746.69C46.6213 -734.491 47.7745 -726.883 47.8303 -712.827V-711.85C47.8303 -697.147 46.705 -689.473 43.2175 -676.992L42.7246 -675.269L41.9248 -672.5L41.3947 -670.644C37.2283 -655.909 35.7403 -646.378 35.7403 -628.975C35.7403 -611.554 37.2283 -602.024 41.3947 -587.305L41.9248 -585.432L42.7246 -582.664L43.2175 -580.94C46.6213 -568.741 47.7745 -561.133 47.8303 -547.077V-546.1C47.8303 -531.397 46.705 -523.723 43.2175 -511.242L42.7246 -509.519L41.9248 -506.75L41.3947 -504.894C37.2283 -490.159 35.7403 -480.628 35.7403 -463.225C35.7403 -445.804 37.2283 -436.274 41.3947 -421.555L41.9248 -419.682L42.7246 -416.914L43.2175 -415.19C46.6213 -402.991 47.7745 -395.383 47.8303 -381.327V-380.35C47.8303 -365.648 46.705 -357.973 43.2175 -345.492L42.7246 -343.769L41.9248 -341L41.3947 -339.144C37.2283 -324.409 35.7403 -314.878 35.7403 -297.475C35.7403 -280.054 37.2283 -270.524 41.3947 -255.805L41.9248 -253.932L42.7246 -251.164L43.2175 -249.44C46.6213 -237.241 47.7745 -229.633 47.8303 -215.577V-214.6C47.8303 -199.898 46.705 -192.223 43.2175 -179.742L42.7246 -178.019L41.9248 -175.25L41.3947 -173.394C37.2283 -158.659 35.7403 -149.128 35.7403 -131.725C35.7403 -114.304 37.2283 -104.774 41.3947 -90.0549L41.9248 -88.182L42.7246 -85.4141L43.2175 -83.6903C46.6213 -71.4911 47.7745 -63.8831 47.8303 -49.8274V-48.8496C47.8303 -34.1476 46.705 -26.4733 43.2175 -13.9923L42.7246 -12.2686L41.9248 -9.50049L41.3947 -7.64417C37.2283 7.09106 35.7403 16.6217 35.7403 34.0254C35.7403 51.4458 37.2283 60.9764 41.3947 75.6951L41.9248 77.5696L42.7246 80.3359L43.2175 82.0598C46.6213 94.2589 47.7745 101.867 47.8303 115.923V116.9C47.8303 131.602 46.705 139.277 43.2175 151.758L42.7246 153.481L41.9248 156.25L41.3947 158.106C37.2283 172.841 35.7403 182.372 35.7403 199.775C35.7403 217.196 37.2283 226.726 41.3947 241.445L41.9248 243.318L42.7246 246.086L43.2175 247.81C46.6213 260.009 47.7745 267.617 47.8303 281.673V282.65C47.8303 297.352 46.705 305.027 43.2175 317.508L42.7246 319.231L41.9248 322L41.3947 323.856C37.2283 338.591 35.7403 348.122 35.7403 365.525C35.7403 382.946 37.2283 392.476 41.3947 407.195L41.9248 409.068L42.7246 411.836L43.2175 413.56C46.6213 425.759 47.7745 433.367 47.8303 447.423V448.4C47.8303 463.103 46.705 470.777 43.2175 483.258L42.7246 484.981L41.9248 487.75L41.3947 489.606C37.2283 504.341 35.7403 513.872 35.7403 531.275C35.7403 548.696 37.2283 558.226 41.3947 572.945L41.9248 574.818L42.7246 577.586L43.2175 579.31C46.6213 591.509 47.7745 599.117 47.8303 613.173V614.15C47.8303 628.852 46.705 636.527 43.2175 649.008L42.7246 650.732L41.9248 653.499L41.3947 655.356C37.2283 670.091 35.7403 679.622 35.7403 697.025C35.7403 714.446 37.2283 723.976 41.3947 738.695L41.9248 740.568L42.7246 743.336L43.2175 745.06C46.6213 757.259 47.7745 764.867 47.8303 778.923V779.9C47.8303 794.602 46.705 802.277 43.2175 814.758L42.7246 816.482L41.9248 819.25L41.3947 821.106C37.2283 835.841 35.7403 845.372 35.7403 862.775C35.7403 880.196 37.2283 889.726 41.3947 904.445L41.9248 906.318L42.7246 909.086L43.2175 910.81C46.6213 923.009 47.7745 930.617 47.8303 944.673V945.65C47.8303 960.352 46.705 968.027 43.2175 980.508L42.7246 982.232L41.9248 985L41.3947 986.856C37.2283 1001.59 35.7403 1011.12 35.7403 1028.53C35.7403 1045.95 37.2283 1055.48 41.3947 1070.2L41.9248 1072.07L42.7246 1074.84L43.2175 1076.56C46.6213 1088.76 47.7745 1096.37 47.8303 1110.42V1111.4C47.8303 1126.1 46.705 1133.78 43.2175 1146.26L42.7246 1147.98L41.9248 1150.75L41.3947 1152.61C37.2283 1167.34 35.7403 1176.87 35.7403 1194.28C35.7403 1211.7 37.2283 1221.23 41.3947 1235.95L41.9248 1237.82L42.7246 1240.59L43.2175 1242.31C46.6213 1254.51 47.7745 1262.12 47.8303 1276.17V1277.15C47.8303 1291.85 46.705 1299.53 43.2175 1312.01L42.7246 1313.73L41.9248 1316.5L41.3947 1318.36C37.2283 1333.09 35.7403 1342.62 35.7403 1360.03C35.7403 1377.45 37.2283 1386.98 41.3947 1401.7L41.9248 1403.57L42.7246 1406.34L43.2175 1408.06C46.705 1420.54 47.8303 1428.22 47.8303 1442.9C47.8303 1468.96 44.0917 1495.06 36.5773 1521.3L36.1588 1522.73L42.7618 1528.84C51.0853 1500.3 55.2703 1471.62 55.2703 1442.9C55.2703 1425.5 53.7823 1415.97 49.6159 1401.23L49.0858 1399.37L48.286 1396.61L47.7931 1394.88C44.3056 1382.4 43.1803 1374.73 43.1803 1360.03C43.1803 1345.34 44.3056 1337.67 47.7931 1325.18L48.286 1323.46L49.0858 1320.69L49.6159 1318.82C53.7823 1304.1 55.2703 1294.57 55.2703 1277.15C55.2703 1259.75 53.7823 1250.22 49.6159 1235.48L49.0858 1233.62L48.286 1230.86L47.7931 1229.13C44.3056 1216.65 43.1803 1208.98 43.1803 1194.28C43.1803 1179.59 44.3056 1171.92 47.7931 1159.43L48.286 1157.71L49.0858 1154.94L49.6159 1153.07C53.7823 1138.35 55.2703 1128.82 55.2703 1111.4C55.2703 1094 53.7823 1084.47 49.6159 1069.73L49.0858 1067.87L48.286 1065.11L47.7931 1063.38C44.3056 1050.9 43.1803 1043.23 43.1803 1028.53C43.1803 1013.84 44.3056 1006.17 47.7931 993.685L48.286 991.961L49.0858 989.193L49.6159 987.32C53.7823 972.601 55.2703 963.071 55.2703 945.65C55.2703 928.247 53.7823 918.716 49.6159 903.981L49.0858 902.125L48.286 899.357L47.7931 897.633C44.3056 885.152 43.1803 877.477 43.1803 862.775C43.1803 848.09 44.3056 840.416 47.7931 827.935L48.286 826.211L49.0858 823.443L49.6159 821.57C53.7823 806.851 55.2703 797.321 55.2703 779.9C55.2703 762.497 53.7823 752.966 49.6159 738.231L49.0858 736.375L48.286 733.607L47.7931 731.883C44.3056 719.402 43.1803 711.727 43.1803 697.025C43.1803 682.34 44.3056 674.666 47.7931 662.185L48.286 660.461L49.0858 657.693L49.6159 655.82C53.7823 641.101 55.2703 631.571 55.2703 614.15C55.2703 596.747 53.7823 587.216 49.6159 572.481L49.0858 570.624L48.286 567.857L47.7931 566.133C44.3056 553.652 43.1803 545.977 43.1803 531.275C43.1803 516.59 44.3056 508.916 47.7931 496.435L48.286 494.711L49.0858 491.943L49.6159 490.07C53.7823 475.351 55.2703 465.821 55.2703 448.4C55.2703 430.997 53.7823 421.466 49.6159 406.731L49.0858 404.875L48.286 402.106L47.7931 400.383C44.3056 387.902 43.1803 380.227 43.1803 365.525C43.1803 350.84 44.3056 343.166 47.7931 330.685L48.286 328.961L49.0858 326.193L49.6159 324.32C53.7823 309.601 55.2703 300.071 55.2703 282.65C55.2703 265.247 53.7823 255.716 49.6159 240.981L49.0858 239.125L48.286 236.356L47.7931 234.633C44.3056 222.152 43.1803 214.477 43.1803 199.775C43.1803 185.09 44.3056 177.416 47.7931 164.935L48.286 163.211L49.0858 160.443L49.6159 158.57C53.7823 143.851 55.2703 134.321 55.2703 116.9C55.2703 99.4967 53.7823 89.9661 49.6159 75.2308L49.0858 73.3745L48.286 70.6064L47.7931 68.8827C44.3056 56.4017 43.1803 48.7274 43.1803 34.0254C43.1803 19.34 44.3056 11.6658 47.7931 -0.815186L48.286 -2.53906L49.0858 -5.30701L49.6159 -7.17993C53.7823 -21.8986 55.2703 -31.4292 55.2703 -48.8496C55.2703 -66.2533 53.7823 -75.7839 49.6159 -90.5192L49.0858 -92.3755L48.286 -95.1436L47.7931 -96.8673C44.3056 -109.348 43.1803 -117.023 43.1803 -131.725C43.1803 -146.41 44.3056 -154.084 47.7931 -166.565L48.286 -168.289L49.0858 -171.057L49.6159 -172.93C53.7823 -187.649 55.2703 -197.179 55.2703 -214.6C55.2703 -232.003 53.7823 -241.534 49.6159 -256.269L49.0858 -258.125L48.286 -260.894L47.7931 -262.617C44.3056 -275.098 43.1803 -282.773 43.1803 -297.475C43.1803 -312.16 44.3056 -319.834 47.7931 -332.315L48.286 -334.039L49.0858 -336.807L49.6159 -338.68C53.7823 -353.399 55.2703 -362.929 55.2703 -380.35C55.2703 -397.753 53.7823 -407.284 49.6159 -422.019L49.0858 -423.875L48.286 -426.644L47.7931 -428.367C44.3056 -440.848 43.1803 -448.523 43.1803 -463.225C43.1803 -477.91 44.3056 -485.584 47.7931 -498.065L48.286 -499.789L49.0858 -502.557L49.6159 -504.43C53.7823 -519.149 55.2703 -528.679 55.2703 -546.1C55.2703 -563.503 53.7823 -573.034 49.6159 -587.769L49.0858 -589.625L48.286 -592.394L47.7931 -594.117C44.3056 -606.598 43.1803 -614.272 43.1803 -628.975C43.1803 -643.66 44.3056 -651.334 47.7931 -663.815L48.286 -665.539L49.0858 -668.307L49.6159 -670.18C53.7823 -684.899 55.2703 -694.429 55.2703 -711.85C55.2703 -729.253 53.7823 -738.784 49.6159 -753.519L49.0858 -755.375L48.286 -758.144L47.7931 -759.867C44.3056 -772.348 43.1803 -780.022 43.1803 -794.725C43.1803 -809.41 44.3056 -817.084 47.7931 -829.565L48.286 -831.289L49.0858 -834.057L49.6159 -835.93C53.7823 -850.649 55.2703 -860.179 55.2703 -877.6C55.2703 -895.003 53.7823 -904.534 49.6159 -919.269L49.0858 -921.125L48.286 -923.894L47.7931 -925.617C44.3056 -938.098 43.1803 -945.772 43.1803 -960.475C43.1803 -975.16 44.3056 -982.834 47.7931 -995.315L48.286 -997.039L49.0858 -999.807L49.6159 -1001.68C53.7823 -1016.4 55.2703 -1025.93 55.2703 -1043.35Z" fill="#34BAFF"/>
<path d="M43.4407 373.716C43.2801 366.082 42.1661 359.285 39.3626 359.472C36.5591 359.659 35.4913 366.602 35.652 374.237C35.8126 381.871 38.5658 400.039 40.1841 399.969C41.8024 399.899 43.6013 381.351 43.4407 373.716Z" fill="#34B9FF"/>
</g>
<g opacity="0.3">
<path d="M84.9514 48.5234C16.135 48.1111 40.1873 100.06 12.7944 108.306C-19.9435 117.788 20.4778 156.131 20.4778 156.131L155.438 154.894C155.438 154.894 197.196 130.157 163.456 110.779C138.401 94.6999 148.423 48.5234 84.9514 48.5234Z" fill="#3FAFDC"/>
</g>
<g opacity="0.5">
<path d="M103.51 85.4558C93.5569 80.9786 81.4308 83.6702 71.5278 88.9229C60.9548 93.2554 48.4831 103.238 45.0892 112.592C44.9251 121.114 49.009 127.06 58.3693 129.586C74.9782 135.61 94.3223 136.767 111.897 131.01C122.056 127.601 126.727 125.121 126.712 114.333C126.203 102.945 113.764 90.3581 103.51 85.4558Z" fill="#34BAFF"/>
</g>
<g opacity="0.4">
<path d="M84.2833 57.5938C20.8118 57.5938 45.7661 105.617 15.1328 114.49C-17.6051 123.972 20.4778 156.131 20.4778 156.131L155.438 154.894C155.438 154.894 196.862 134.692 161.451 115.727C126.041 96.7613 147.755 57.5938 84.2833 57.5938Z" fill="#3FAFDC"/>
</g>
<g opacity="0.2">
<path d="M117.681 72.9183C111.322 68.8692 103.436 66.9533 96.4809 67.4277C90.5873 67.671 80.0451 69.8959 81.4759 74.8978C84.475 82.0626 93.9897 82.8036 101.474 86.5507C109.098 90.7814 117.17 97.2697 125.461 97.3656C129.715 97.4623 128.997 91.906 128.183 87.9788C126.756 82.685 122.707 76.2783 117.681 72.9183Z" fill="white"/>
</g>
<g opacity="0.43">
<path d="M114.94 70.1872C113.508 68.6341 111.446 67.9344 109.429 68.1718C107.734 68.3103 104.539 69.2648 104.485 71.2295C104.678 74.0371 107.31 74.2612 109.09 75.6869C110.865 77.3025 112.559 79.8064 114.903 79.7845C116.102 79.7921 116.408 77.6033 116.538 76.0584C116.619 73.9783 116.058 71.4777 114.94 70.1872Z" fill="white"/>
</g>
<g opacity="0.8">
<path d="M112.609 91.972C106.025 91.1388 97.1229 93.6671 95.8322 102.832C94.5414 111.996 103.984 117.549 111.21 118.464C118.156 119.343 128.547 114.076 128.919 107.019C129.312 99.587 119.925 92.8978 112.609 91.972Z" fill="#C6C8D0"/>
<path d="M109.292 97.1056C112.58 97.5241 114.92 100.457 114.514 103.652C114.107 106.846 111.107 109.1 107.819 108.682C104.53 108.263 102.19 105.33 102.597 102.135C103.003 98.941 106.003 96.6872 109.292 97.1056Z" fill="#004747"/>
<g opacity="0.86">
<path d="M111.794 100.702C112.483 101.241 112.701 102.21 112.282 102.865C111.863 103.519 110.964 103.613 110.275 103.075C109.586 102.536 109.368 101.567 109.787 100.912C110.206 100.257 111.106 100.163 111.794 100.702Z" fill="white"/>
</g>
<g opacity="0.75">
<g opacity="0.7">
<path opacity="0.7" d="M118.365 97.0415C119.952 98.1702 120.597 100.004 119.806 101.135C119.015 102.265 117.084 102.266 115.498 101.138C113.911 100.009 113.266 98.1749 114.057 97.0445C114.848 95.9141 116.779 95.9128 118.365 97.0415Z" fill="white"/>
</g>
<g opacity="0.61">
<path opacity="0.61" d="M122.813 103.029C123.436 103.981 123.444 105.094 122.831 105.513C122.218 105.933 121.214 105.501 120.592 104.549C119.969 103.597 119.961 102.484 120.574 102.065C121.187 101.646 122.191 102.078 122.813 103.029Z" fill="white"/>
</g>
</g>
<path d="M68.3662 89.7642C74.9247 88.7503 83.8932 91.033 85.4354 100.159C86.9776 109.284 77.6916 115.095 70.4935 116.207C63.5738 117.277 53.0423 112.298 52.4757 105.254C51.8792 97.8354 61.0785 90.8908 68.3662 89.7642Z" fill="#C6C8D0"/>
<path d="M71.8237 94.8045C68.548 95.3132 66.2895 98.3097 66.7836 101.492C67.2777 104.674 70.3385 106.844 73.6142 106.336C76.8899 105.827 79.1484 102.83 78.6543 99.6484C78.1602 96.4664 75.0994 94.2958 71.8237 94.8045Z" fill="#004747"/>
<g opacity="0.86">
<path d="M75.6762 97.5469C75.0027 98.1045 74.8108 99.0793 75.2478 99.7223C75.6849 100.365 76.5866 100.435 77.26 99.8771C77.9335 99.3195 78.1255 98.3448 77.6884 97.7017C77.2513 97.0587 76.3497 96.9893 75.6762 97.5469Z" fill="white"/>
</g>
<g opacity="0.75">
<g opacity="0.7">
<path opacity="0.7" d="M62.7516 94.9898C61.1969 96.1617 60.602 98.013 61.4241 99.1211C62.2462 100.229 64.176 100.178 65.7308 99.0057C67.2855 97.8339 67.8804 95.9826 67.0583 94.8744C66.2362 93.7662 64.3064 93.8179 62.7516 94.9898Z" fill="white"/>
</g>
<g opacity="0.61">
<path opacity="0.61" d="M58.4698 101.098C57.8734 102.066 57.8962 103.179 58.5206 103.581C59.145 103.983 60.1362 103.524 60.7325 102.556C61.3288 101.587 61.3061 100.474 60.6817 100.072C60.0573 99.6697 59.0661 100.129 58.4698 101.098Z" fill="white"/>
</g>
</g>
</g>
</svg>
