<svg width="183" height="176" viewBox="0 0 183 176" fill="none" xmlns="http://www.w3.org/2000/svg">
<path d="M106.474 88.3898C106.474 88.3898 114.5 97.7558 131.37 92.9102C148.24 88.0646 150.769 74.2337 151.511 60.0521C152.487 41.3815 160.101 36.8625 168.018 38.3969C179.092 40.5423 185.711 71.8297 165.058 93.7867C142.006 118.278 111.421 104.611 103.614 90.0567C99.8074 82.9588 103.732 84.928 106.474 88.3898Z" fill="#009ED5"/>
<path d="M106.474 88.3898C106.474 88.3898 114.5 97.7558 131.37 92.9102C148.24 88.0646 150.769 74.2337 151.511 60.0521C152.487 41.3815 160.101 36.8625 168.018 38.3969C179.092 40.5423 185.711 71.8297 165.058 93.7867C142.006 118.278 111.421 104.611 103.614 90.0567C99.8074 82.9588 103.732 84.928 106.474 88.3898Z" stroke="#033E75" stroke-width="2" stroke-linecap="round" stroke-linejoin="round"/>
<path d="M169.576 40.9382C173.658 43.7486 178.174 51.4548 175.432 66.0134C172.691 80.5718 162.631 94.8983 155.06 97.9405C147.488 100.982 146.392 95.9676 152.594 81.1323C158.795 66.2978 156.105 61.3424 156.943 50.4763C157.935 37.6132 167.199 39.3019 169.576 40.9382Z" fill="#00C4F1"/>
<path d="M167.565 43.2578C173.898 44.1275 176.769 57.4981 172.204 67.7716C167.639 78.0454 159.367 75.3556 159.419 64.692C159.471 54.0284 159.019 42.084 167.565 43.2578Z" fill="#007DD2"/>
<g opacity="0.4">
<path opacity="0.4" d="M160.744 45.8186C165.635 46.883 163.282 63.1281 158.872 61.5532C154.462 59.9783 155.184 44.6091 160.744 45.8186Z" fill="white"/>
</g>
<g opacity="0.4">
<path opacity="0.4" d="M158.604 64.1308C160.969 64.8605 160.275 71.7032 157.78 70.8769C155.285 70.051 156.238 63.4015 158.604 64.1308Z" fill="white"/>
</g>
<path d="M92.3401 90.3245C92.3401 90.3245 101.746 114.727 92.3179 143.182C82.8906 171.637 65.1897 177.252 58.8934 172.844C52.598 168.435 54.6999 161.978 62.4242 152.817C70.1481 143.656 79.6643 133.074 85.4113 118.348C89.8623 106.942 90.0052 97.6032 88.5029 90.8187C87.0001 84.0347 90.5418 84.1939 92.3401 90.3245Z" fill="#009ED5"/>
<path d="M92.3401 90.3245C92.3401 90.3245 101.746 114.727 92.3179 143.182C82.8906 171.637 65.1897 177.252 58.8934 172.844C52.598 168.435 54.6999 161.978 62.4242 152.817C70.1481 143.656 79.6643 133.074 85.4113 118.348C89.8623 106.942 90.0052 97.6032 88.5029 90.8187C87.0001 84.0347 90.5418 84.1939 92.3401 90.3245Z" stroke="#033E75" stroke-width="2" stroke-linecap="round" stroke-linejoin="round"/>
<path d="M94.9552 113.705C95.1317 120.402 93.5871 145.858 81.0298 161.585C70.1408 175.222 62.3521 173.632 59.7471 170.998C56.7271 167.945 57.1101 163.58 67.302 155.495C77.494 147.409 87.0338 134.787 90.7102 117.426C92.5739 108.624 94.8834 110.965 94.9552 113.705Z" fill="#00C4F1"/>
<path d="M86.3201 146.074C82.7681 143.878 71.1464 158.209 75.8833 160.151C80.6201 162.093 89.8724 148.27 86.3201 146.074Z" fill="#007DD2"/>
<path d="M74.0091 161.2C72.3935 159.786 66.545 163.709 69.0888 166.026C71.6326 168.342 76.6523 163.514 74.0091 161.2Z" fill="#007DD2"/>
<g opacity="0.4">
<path opacity="0.4" d="M76.2883 156.527C73.0219 153.591 61.211 163.355 65.5005 166.787C69.7899 170.219 80.0548 159.911 76.2883 156.527Z" fill="white"/>
</g>
<g opacity="0.4">
<path opacity="0.4" d="M81.5076 149.45C79.6477 147.735 75.3475 152.418 77.6777 153.639C80.007 154.859 83.0158 150.84 81.5076 149.45Z" fill="white"/>
</g>
<path d="M81.769 89.5699C80.2063 94.675 77.2132 103.464 66.7948 111.121C59.0084 116.844 53.1625 119.199 54.7877 123.497C56.4129 127.795 62.7741 126.7 72.4108 117.702C82.048 108.705 85.7667 95.7038 86.1176 89.7884C86.471 83.8229 83.6777 83.3361 81.769 89.5699Z" fill="#009ED5"/>
<path d="M81.769 89.5699C80.2063 94.675 77.2132 103.464 66.7948 111.121C59.0084 116.844 53.1625 119.199 54.7877 123.497C56.4129 127.795 62.7741 126.7 72.4108 117.702C82.048 108.705 85.7667 95.7038 86.1176 89.7884C86.471 83.8229 83.6777 83.3361 81.769 89.5699Z" stroke="#033E75" stroke-width="2" stroke-linecap="round" stroke-linejoin="round"/>
<path d="M77.7196 101.826C73.293 107.566 68.6888 112.098 63.1587 115.713C59.3934 118.174 54.9844 121.1 57.3071 123.453C59.4121 125.585 66.492 121.016 72.0644 114.711C77.6367 108.406 81.3732 97.0873 77.7196 101.826Z" fill="#00C4F1"/>
<g opacity="0.4">
<path opacity="0.4" d="M60.6335 118.374C58.951 117.848 56.5084 120.753 57.8548 121.381C59.2013 122.009 61.9479 118.785 60.6335 118.374Z" fill="white"/>
</g>
<g opacity="0.4">
<path opacity="0.4" d="M63.9828 116C63.3205 115.431 61.4304 117.078 62.137 117.588C62.8436 118.097 64.5294 116.469 63.9828 116Z" fill="white"/>
</g>
<path d="M68.6133 85.4018C68.6133 85.4018 58.978 93.1025 43.3103 85.1898C27.6425 77.2771 26.1461 63.2888 28.0679 49.219C30.5981 30.6957 23.9625 24.8338 15.8977 24.8614C4.61789 24.8995 -7.04712 52.6918 10.0508 79.7551C28.0143 108.189 60.7214 100.412 71.1115 87.5738C76.1777 81.3126 71.9543 82.5137 68.6133 85.4018Z" fill="#009ED5"/>
<path d="M68.6133 85.4018C68.6133 85.4018 58.978 93.1025 43.3103 85.1898C27.6425 77.2771 26.1461 63.2888 28.0679 49.219C30.5981 30.6957 23.9625 24.8338 15.8977 24.8614C4.61789 24.8995 -7.04712 52.6918 10.0508 79.7551C28.0143 108.189 60.7214 100.412 71.1115 87.5738C76.1777 81.3126 71.9543 82.5137 68.6133 85.4018Z" stroke="#033E75" stroke-width="2" stroke-linecap="round" stroke-linejoin="round"/>
<path d="M13.8924 27.0665C9.35682 29.0644 3.48012 35.7906 3.45237 50.6043C3.42504 65.4181 12.2268 81.3004 19.0967 85.7038C25.9665 90.1065 27.2521 83.1995 23.9327 67.4673C20.6129 51.7359 23.3131 49.6278 24.5211 38.7971C25.9507 25.9758 16.5332 25.9033 13.8924 27.0665Z" fill="#00C4F1"/>
<path d="M15.4347 29.721C9.04995 29.3917 3.73049 41.9896 6.29525 52.9348C8.86043 63.8804 17.489 62.7839 19.4313 52.2989C21.3731 41.814 24.0502 30.1651 15.4347 29.721Z" fill="#007DD2"/>
<g opacity="0.4">
<path opacity="0.4" d="M21.6573 33.5115C16.6526 33.643 15.9285 50.0409 20.5552 49.318C25.1823 48.5951 27.345 33.3623 21.6573 33.5115Z" fill="white"/>
</g>
<g opacity="0.4">
<path opacity="0.4" d="M20.3367 51.9002C17.8768 52.175 17.2799 59.0265 19.8857 58.6811C22.4915 58.3362 22.7971 51.6258 20.3367 51.9002Z" fill="white"/>
</g>
<path d="M88.8686 88.2591C88.8686 88.2591 92.0157 108.888 83.06 128.104C74.1039 147.321 60.255 156.721 52.9814 150.791C45.7078 144.861 57.4118 133.382 70.7625 117.986C84.1128 102.59 83.9837 92.6268 84.467 88.0245C84.9495 83.4232 87.8844 83.4299 88.8686 88.2591Z" fill="#009ED5"/>
<path d="M88.8686 88.2591C88.8686 88.2591 92.0157 108.888 83.06 128.104C74.1039 147.321 60.255 156.721 52.9814 150.791C45.7078 144.861 57.4118 133.382 70.7625 117.986C84.1128 102.59 83.9837 92.6268 84.467 88.0245C84.9495 83.4232 87.8844 83.4299 88.8686 88.2591Z" stroke="#033E75" stroke-width="2" stroke-linecap="round" stroke-linejoin="round"/>
<path d="M82.0441 104.732C74.5798 116.737 64.1355 128.6 57.5853 135.461C53.0694 140.192 50.8051 147.095 55.9409 149.892C60.6231 152.442 71.394 146.2 77.6846 133.792C83.9747 121.384 86.6133 97.3836 82.0441 104.732Z" fill="#00C4F1"/>
<g opacity="0.4">
<path opacity="0.4" d="M65.0129 131.146C62.4565 129.908 53.3235 140.812 57.0023 142.388C60.681 143.963 69.0541 133.101 65.0129 131.146Z" fill="white"/>
</g>
<g opacity="0.4">
<path opacity="0.4" d="M69.6715 125.055C68.1243 124.358 65.1249 128.196 67.0507 129.23C68.9762 130.264 71.2188 125.752 69.6715 125.055Z" fill="white"/>
</g>
<path d="M60.6034 134.489C59.1824 133.769 56.7253 138.151 58.3041 138.331C59.8832 138.511 62.0244 135.209 60.6034 134.489Z" fill="white"/>
<path d="M62.204 131.757C61.1417 131.705 60.4522 133.689 61.7434 133.56C63.0349 133.431 63.1533 131.803 62.204 131.757Z" fill="white"/>
<path d="M101.052 10.4769C90.4445 7.36426 78.374 8.88717 62.5649 23.9158C46.7558 38.9448 37.9842 44.5256 37.2842 58.0899C36.5843 71.6537 55.6371 84.5066 77.7604 90.2561C99.8841 96.0056 123.011 97.8524 133.737 85.533C144.464 73.2136 136.313 56.7898 129.923 43.2902C123.532 29.791 118.838 15.6964 101.052 10.4769Z" fill="#009ED5"/>
<path d="M101.052 10.4769C90.4445 7.36426 78.374 8.88717 62.5649 23.9158C46.7558 38.9448 37.9842 44.5256 37.2842 58.0899C36.5843 71.6537 55.6371 84.5066 77.7604 90.2561C99.8841 96.0056 123.011 97.8524 133.737 85.533C144.464 73.2136 136.313 56.7898 129.923 43.2902C123.532 29.791 118.838 15.6964 101.052 10.4769Z" stroke="#033E75" stroke-width="2" stroke-linecap="round" stroke-linejoin="round"/>
<path d="M120.374 33.1902C117.32 25.4787 113.261 15.9355 101.241 12.6172C89.2208 9.29881 76.2661 14.1569 61.4151 31.4435C46.5637 48.7296 37.1223 57.2396 50.9063 72.7013C64.6907 88.1627 108.828 95.4596 122.945 86.905C137.062 78.3507 134.009 67.6079 120.374 33.1902Z" fill="#00C4F1"/>
<path d="M85.9572 74.5717C82.298 76.7237 88.8226 90.2724 93.2831 87.1858C97.7432 84.0996 89.6169 72.4197 85.9572 74.5717Z" fill="#007DD2"/>
<path d="M78.8626 74.3678C76.1248 75.2902 79.5127 82.0248 81.7234 80.9267C83.9346 79.8286 81.6794 73.4188 78.8626 74.3678Z" fill="#007DD2"/>
<path d="M97.8922 12.3551C95.4667 14.2853 105.153 22.8769 107.761 19.9621C110.37 17.0475 101.247 9.68583 97.8922 12.3551Z" fill="#007DD2"/>
<path d="M92.3331 13.5011C90.1825 14.6831 94.739 20.07 96.3721 18.4523C98.0052 16.8351 94.852 12.1166 92.3331 13.5011Z" fill="#007DD2"/>
<g opacity="0.4">
<path opacity="0.4" d="M97.5227 57.4432C95.6797 59.069 99.6898 64.4239 102.215 62.6805C104.739 60.9374 99.366 55.8175 97.5227 57.4432Z" fill="white"/>
</g>
<g opacity="0.4">
<path opacity="0.4" d="M103.756 63.0493C102.883 64.5636 106.723 65.8222 107.35 64.3452C107.977 62.8679 104.628 61.5353 103.756 63.0493Z" fill="white"/>
</g>
<g opacity="0.4">
<path opacity="0.4" d="M131.78 61.804C127.097 61.316 125.261 74.2751 130.556 74.547C135.851 74.8188 136.463 62.292 131.78 61.804Z" fill="white"/>
</g>
<g opacity="0.4">
<path opacity="0.4" d="M130.939 77.3656C128.746 75.8161 124.308 79.924 126.694 82.165C129.08 84.4056 133.263 79.0089 130.939 77.3656Z" fill="white"/>
</g>
<path d="M101.535 41.7319C99.1885 50.0456 100.393 62.3282 112.021 63.4899C123.649 64.6515 127.891 53.2223 126.344 44.9567C124.798 36.6902 103.448 34.9541 101.535 41.7319Z" fill="#009ED5"/>
<path d="M117.773 59.3757C117.022 59.5965 116.216 59.7553 115.352 59.847C113.397 60.0589 111.662 59.9077 110.147 59.4616C100.4 56.6045 99.356 41.7118 104.139 33.5077C105.636 30.9427 107.7 29.0334 110.245 28.349C110.561 28.2654 110.883 28.1972 111.21 28.1527C125.194 26.1893 133.119 54.9484 117.773 59.3757Z" fill="white"/>
<path d="M117.773 59.3758C117.022 59.5965 116.216 59.7553 115.352 59.847C113.397 60.0589 111.662 59.9077 110.147 59.4616C100.4 56.6045 99.356 41.7118 104.139 33.5077C105.636 30.9427 107.7 29.0334 110.245 28.349C110.561 28.2654 110.883 28.1972 111.21 28.1527C125.194 26.1893 133.119 54.9484 117.773 59.3758Z" stroke="#122444" stroke-width="2" stroke-linecap="round" stroke-linejoin="round"/>
<path d="M117.351 58.6483C116.644 58.8541 113.3 59.6637 110.205 58.5668C101.196 55.3731 100.155 42.0033 104.653 34.3377C106.06 31.9404 107.799 30.0075 110.194 29.3699C115.213 31.8999 119.173 38.1996 119.84 45.7143C120.267 50.5101 119.272 55.1556 117.351 58.6483Z" fill="#96EFFF"/>
<path d="M110.283 59.5296C100.407 56.6344 99.3479 41.5429 104.195 33.2302C104.323 33.2118 104.452 33.1969 104.581 33.1861C110.167 32.6969 115.228 38.4375 115.891 46.0116C116.413 51.9757 114.045 57.2999 110.283 59.5296Z" fill="#122444"/>
<path d="M113.464 31.707C108.193 34.3519 114.159 43.416 118.106 40.562C122.053 37.7078 117.767 29.5477 113.464 31.707Z" fill="white"/>
<path d="M108.79 38.169C105.485 38.9776 106.988 46.4499 110.86 44.8854C114.746 43.3154 111.768 37.4405 108.79 38.169Z" fill="white"/>
<path d="M86.5667 39.1147C86.5667 39.1147 83.7822 54.2047 73.5242 55.326C63.2657 56.4474 56.9093 46.8386 60.2369 38.6097C63.5649 30.3804 88.4786 33.07 86.5667 39.1147Z" fill="#009ED5"/>
<path d="M64.3393 48.3489C64.9328 48.8593 65.6016 49.336 66.3511 49.776C68.0457 50.7747 69.6887 51.3513 71.2535 51.5694C81.311 52.9817 88.3937 39.8415 87.4121 30.3944C87.1044 27.4405 86.0085 24.8495 83.9716 23.1774C83.7183 22.9712 83.4529 22.7767 83.1729 22.6008C71.2381 15.0495 52.1783 37.9911 64.3393 48.3489Z" fill="white"/>
<path d="M64.3393 48.3489C64.9328 48.8593 65.6016 49.336 66.3511 49.776C68.0457 50.7747 69.6887 51.3513 71.2535 51.5694C81.311 52.9817 88.3937 39.8415 87.4121 30.3944C87.1044 27.4405 86.0085 24.8495 83.9716 23.1774C83.7183 22.9712 83.4529 22.7767 83.1729 22.6008C71.2381 15.0495 52.1783 37.9911 64.3393 48.3489Z" stroke="#122444" stroke-width="2" stroke-linecap="round" stroke-linejoin="round"/>
<path d="M65.024 47.8599C65.5834 48.3389 68.2971 50.4533 71.5688 50.7295C81.0934 51.5325 87.5434 39.7841 86.5995 30.9486C86.3025 28.1854 85.5139 25.7084 83.5937 24.1406C77.9793 24.3774 71.778 28.4842 68.0773 35.0536C65.7145 39.2459 64.7109 43.8872 65.024 47.8599Z" fill="#96EFFF"/>
<path d="M71.1015 51.5747C81.2928 53.0058 88.4701 39.6902 87.4758 30.1177C87.3656 30.0477 87.2546 29.9816 87.1425 29.9191C82.2532 27.1714 75.2777 30.3171 71.5556 36.9454C68.6253 42.1656 68.5913 47.9931 71.1015 51.5747Z" fill="#122444"/>
<path d="M78.6168 25.4886C82.4429 28.4861 76.6607 36.7787 71.9507 32.5222C68.3374 29.2564 75.1689 22.7875 78.6168 25.4886Z" fill="white"/>
<path d="M79.6554 34.3239C82.9496 36.8168 78.4502 42.2505 75.2427 39.3454C72.7151 37.0561 77.2099 32.473 79.6554 34.3239Z" fill="white"/>
<path d="M124.914 35.703C139.55 39.3588 149.152 52.5187 145.975 69.9116C142.538 89.1641 126.332 96.5116 105.848 94.6921" fill="#009ED5"/>
<path d="M124.914 35.703C139.55 39.3588 149.152 52.5187 145.975 69.9116C142.538 89.1641 126.332 96.5116 105.848 94.6921" stroke="#033E75" stroke-width="2" stroke-linecap="round" stroke-linejoin="round"/>
<path d="M120.941 36.2913C128.275 36.0257 146.123 45.4167 144.161 67.1564C142.263 88.3678 114.404 92.0184 101.95 90.4926C94.106 89.5316 93.572 58.0609 101.881 46.7569C110.189 35.4525 117.963 36.3994 120.941 36.2913Z" fill="#00C4F1"/>
<path d="M118.865 36.092C118.865 36.092 100.801 37.5981 98.7983 58.4585" stroke="#033E75" stroke-width="2" stroke-linecap="round" stroke-linejoin="round"/>
<path d="M130.635 44.7811C141.998 51.0598 142.177 69.2247 131.04 79.2109C119.903 89.1969 101.264 76.8227 102.186 62.2926C103.108 47.7624 114.813 36.038 130.635 44.7811Z" fill="#007DD2"/>
<g opacity="0.4">
<path opacity="0.4" d="M116.118 40.5242C112.356 37.1831 102.866 46.1929 106.416 49.5955C109.967 52.9978 119.424 43.4598 116.118 40.5242Z" fill="white"/>
</g>
<g opacity="0.4">
<path opacity="0.4" d="M104.786 51.2137C102.97 50.6705 100.402 55.5207 102.706 56.7145C105.01 57.9079 106.922 51.853 104.786 51.2137Z" fill="white"/>
</g>
<g opacity="0.4">
<path opacity="0.4" d="M129.26 41.5118C125.965 43.5254 132.017 50.9721 134.896 49.3673C137.776 47.763 132.555 39.4981 129.26 41.5118Z" fill="white"/>
</g>
<g opacity="0.4">
<path opacity="0.4" d="M136.293 50.3443C135.402 50.7868 136.421 53.2988 137.49 52.5774C138.559 51.8563 137.436 49.7772 136.293 50.3443Z" fill="white"/>
</g>
<g opacity="0.4">
<path opacity="0.4" d="M98.6927 68.7619C95.7332 70.4649 99.3933 78.3361 102.271 76.8182C104.704 75.5352 101.845 66.948 98.6927 68.7619Z" fill="white"/>
</g>
<g opacity="0.4">
<path opacity="0.4" d="M103.369 78.2442C102.41 78.7421 103.52 81.6406 104.708 80.5405C105.897 79.4407 104.92 77.4392 103.369 78.2442Z" fill="white"/>
</g>
<path d="M64.6644 22.7732C64.6644 22.7732 44.233 16.5527 34.6583 36.7288C25.963 55.0766 38.6349 73.7634 54.9977 81.1173" fill="#009ED5"/>
<path d="M64.6644 22.7732C64.6644 22.7732 44.233 16.5527 34.6583 36.7288C25.963 55.0766 38.6349 73.7634 54.9977 81.1173" stroke="#033E75" stroke-width="2" stroke-linecap="round" stroke-linejoin="round"/>
<path d="M67.813 25.1212C62.6719 22.149 46.91 22.6314 39.182 34.6904C31.4539 46.7491 38.4633 68.1415 58.5123 78.9982C74.3782 87.5892 79.535 53.0056 80.0493 47.6495C81.2407 35.2408 73.9962 28.6955 67.813 25.1212Z" fill="#00C4F1"/>
<path d="M68.1287 30.6574C78.9171 36.6187 78.8941 54.1828 68.3201 63.6638C57.7467 73.1449 39.965 61.5709 40.8403 47.7754C41.7152 33.9798 53.1065 22.3566 68.1287 30.6574Z" fill="#007DD2"/>
<path d="M68.7544 25.6802C68.7544 25.6802 86.7859 36.2813 77.6015 56.5683" stroke="#033E75" stroke-width="2" stroke-linecap="round" stroke-linejoin="round"/>
<g opacity="0.4">
<path opacity="0.4" d="M68.7872 30.2282C63.7504 32.1775 70.8105 44.6686 74.4532 42.4399C78.0954 40.2111 73.4254 28.4332 68.7872 30.2282Z" fill="white"/>
</g>
<g opacity="0.4">
<path opacity="0.4" d="M74.4634 44.7469C72.4746 45.0704 72.7135 51.3888 75.2426 50.6227C77.7722 49.8567 77.1794 44.3048 74.4634 44.7469Z" fill="white"/>
</g>
<path d="M71.0493 32.1678C69.7754 32.7504 71.5332 36.624 72.9489 35.6268C74.3645 34.6299 72.6633 31.4296 71.0493 32.1678Z" fill="white"/>
<path d="M73.4354 36.3318C72.7686 36.518 73.4361 38.6032 74.3401 38.2216C75.2441 37.8396 74.5458 36.0217 73.4354 36.3318Z" fill="white"/>
<path d="M96.7402 47.7965C95.0135 45.5991 93.1477 48.8319 91.4024 48.7216C89.6574 48.6113 89.448 45.3893 87.016 46.0635C83.7679 46.9639 81.9434 61.7015 89.3697 62.8501C95.9292 63.8645 99.7983 51.6873 96.7402 47.7965Z" fill="#21385B"/>
<path d="M96.7402 47.7965C95.0135 45.5991 93.1477 48.8319 91.4024 48.7216C89.6574 48.6113 89.448 45.3893 87.016 46.0635C83.7679 46.9639 81.9434 61.7015 89.3697 62.8501C95.9292 63.8645 99.7983 51.6873 96.7402 47.7965Z" stroke="#122444" stroke-width="2" stroke-linecap="round" stroke-linejoin="round"/>
<path d="M95.2853 47.8601C95.2853 47.8601 94.7104 52.4705 91.0625 52.0387C87.4143 51.6064 88.0772 46.9149 88.0772 46.9149C88.0772 46.9149 88.3705 46.8944 89.1649 48.0141C89.9596 49.134 90.5087 49.4267 91.2407 49.4807C91.9723 49.5343 92.7785 49.2471 93.7775 48.5813C94.7762 47.915 95.2853 47.8601 95.2853 47.8601Z" fill="white"/>
<path d="M95.7232 57.3317C95.7232 57.3317 93.5837 62.4374 89.8237 62.0845C86.6464 61.7858 85.7465 58.6679 85.4723 57.7253C85.4723 57.7253 88.0822 54.514 90.975 54.7277C93.8678 54.9414 95.7232 57.3317 95.7232 57.3317Z" fill="#0E66A8"/>
<path d="M94.8712 57.8728C92.7313 58.6014 93.0075 59.5796 91.2629 59.7904C89.5178 60.0012 87.817 58.9914 87.1213 62.119C86.6938 64.3272 86.8428 65.7633 88.609 65.9815C90.3755 66.1998 90.7003 65.2699 91.466 65.2926C92.5775 65.2621 91.3775 69.8099 93.2799 69.4308C95.2409 69.0079 96.3243 64.9234 96.7994 61.8195C97.5009 56.5655 96.2533 57.2653 94.8712 57.8728Z" fill="#96EFFF"/>
<path d="M36.3148 70.1244C28.0491 65.4146 22.2686 51.9418 28.7204 35.505C35.1725 19.0682 59.6699 17.1023 59.6699 17.1023C63.9434 12.7638 79.0718 2.70789 100.862 7.0373C122.652 11.3671 129.375 31.5621 129.375 31.5621C129.375 31.5621 152.618 43.7037 150.257 66.7944C147.896 89.8847 127.092 97.6366 127.092 97.6366C127.092 97.6366 124.226 108.223 112.692 108.628C101.158 109.033 101.639 97.9621 92.1677 99.5783C82.6966 101.195 81.353 104.411 74.8863 101.586C66.9882 98.136 67.8103 89.462 59.8514 88.6979C53.4046 88.0789 51.6202 90.9528 46.1045 88.5403C40.0971 85.9123 43.8064 77.0843 37.3168 75.9732C30.8268 74.8616 25.9463 77.6969 25.1617 73.2054C24.3771 68.7135 31.3165 66.0951 31.3165 66.0951" stroke="#033E75" stroke-width="2" stroke-linecap="round" stroke-linejoin="round"/>
<path d="M127.092 97.6365C120.57 99.9619 112.042 99.1432 112.042 99.1432" stroke="#033E75" stroke-width="2" stroke-linecap="round" stroke-linejoin="round"/>
<path d="M42.5135 75.5764C44.7355 77.4891 45.4801 81.1177 51.5593 82.3397" stroke="#033E75" stroke-width="2" stroke-linecap="round" stroke-linejoin="round"/>
<path d="M70.44 90.3994C72.5676 94.4601 80.3363 95.8849 82.5685 94.3994" stroke="#033E75" stroke-width="2" stroke-linecap="round" stroke-linejoin="round"/>
<g opacity="0.4">
<path opacity="0.4" d="M56.7998 21.2236C51.2048 15.8475 26.4484 29.0761 34.3659 40.3397C42.2834 51.6034 64.7119 28.8255 56.7998 21.2236Z" fill="white"/>
</g>
<g opacity="0.4">
<path opacity="0.4" d="M41.446 47.3247C39.5635 45.2661 29.4999 48.1388 32.7191 53.057C36.069 58.1748 44.5234 50.6896 41.446 47.3247Z" fill="white"/>
</g>
<g opacity="0.4">
<path opacity="0.4" d="M88.9008 9.2141C91.7423 12.4693 78.0806 19.4874 76.3215 14.6065C74.5623 9.72636 86.9342 6.96087 88.9008 9.2141Z" fill="white"/>
</g>
</svg>
